STARTFONT 2.3
FONT -FontForge-Courgette-Book-R-Normal--20-200-72-72-P-103-ISO10646-1
SIZE 20 72 72  2
FONTBOUNDINGBOX 27 26 -4 -6
COMMENT "Generated by fontforge, http://fontforge.sourceforge.net"
COMMENT "Copyright (c) 2012, Sorkin Type Co (www.sorkintype.com) with Reserved Font Name "Courgette"."
STARTPROPERTIES 41
FOUNDRY "FontForge"
FAMILY_NAME "Courgette"
WEIGHT_NAME "Book"
SLANT "R"
SETWIDTH_NAME "Normal"
ADD_STYLE_NAME ""
PIXEL_SIZE 20
POINT_SIZE 200
RESOLUTION_X 72
RESOLUTION_Y 72
SPACING "P"
AVERAGE_WIDTH 103
CHARSET_REGISTRY "ISO10646"
CHARSET_ENCODING "1"
FONTNAME_REGISTRY ""
CHARSET_COLLECTIONS "ISO8859-2 ISO8859-9 ISO8859-4 ISO10646-1"
BITS_PER_PIXEL 2
FONT_NAME "Courgette-Regular"
FACE_NAME "Courgette Regular"
COPYRIGHT "Copyright (c) 2012, Sorkin Type Co (www.sorkintype.com) with Reserved Font Name "Courgette"."
FONT_VERSION "1.002"
FONT_ASCENT 16
FONT_DESCENT 4
UNDERLINE_POSITION -2
UNDERLINE_THICKNESS 1
X_HEIGHT 9
CAP_HEIGHT 14
DEFAULT_CHAR 1
RAW_ASCENT 799
RAW_DESCENT 200
NORM_SPACE 6
RELATIVE_WEIGHT 40
RELATIVE_SETWIDTH 50
SUPERSCRIPT_X 0
SUPERSCRIPT_Y 9
SUPERSCRIPT_SIZE 12
SUBSCRIPT_X 0
SUBSCRIPT_Y 2
SUBSCRIPT_SIZE 12
AVG_LOWERCASE_WIDTH 99
AVG_UPPERCASE_WIDTH 116
ENDPROPERTIES
CHARS 407
STARTCHAR .null.dup1
ENCODING 0
SWIDTH 0 0
DWIDTH 0 0
BBX 1 1 0 0
BITMAP
00
ENDCHAR
STARTCHAR uni0001
ENCODING 1
SWIDTH 0 0
DWIDTH 0 0
BBX 1 1 0 0
BITMAP
00
ENDCHAR
STARTCHAR uni0002
ENCODING 2
SWIDTH 0 0
DWIDTH 0 0
BBX 1 1 0 0
BITMAP
00
ENDCHAR
STARTCHAR uni0003
ENCODING 3
SWIDTH 0 0
DWIDTH 0 0
BBX 1 1 0 0
BITMAP
00
ENDCHAR
STARTCHAR uni0004
ENCODING 4
SWIDTH 0 0
DWIDTH 0 0
BBX 1 1 0 0
BITMAP
00
ENDCHAR
STARTCHAR uni0005
ENCODING 5
SWIDTH 0 0
DWIDTH 0 0
BBX 1 1 0 0
BITMAP
00
ENDCHAR
STARTCHAR uni0006
ENCODING 6
SWIDTH 0 0
DWIDTH 0 0
BBX 1 1 0 0
BITMAP
00
ENDCHAR
STARTCHAR uni0007
ENCODING 7
SWIDTH 0 0
DWIDTH 0 0
BBX 1 1 0 0
BITMAP
00
ENDCHAR
STARTCHAR uni0008
ENCODING 8
SWIDTH 0 0
DWIDTH 0 0
BBX 1 1 0 0
BITMAP
00
ENDCHAR
STARTCHAR uni0009
ENCODING 9
SWIDTH 0 0
DWIDTH 0 0
BBX 1 1 0 0
BITMAP
00
ENDCHAR
STARTCHAR nonmarkingreturn
ENCODING 13
SWIDTH 0 0
DWIDTH 0 0
BBX 1 1 0 0
BITMAP
00
ENDCHAR
STARTCHAR uni0015
ENCODING 21
SWIDTH 0 0
DWIDTH 0 0
BBX 1 1 0 0
BITMAP
00
ENDCHAR
STARTCHAR uni0016
ENCODING 22
SWIDTH 0 0
DWIDTH 0 0
BBX 1 1 0 0
BITMAP
00
ENDCHAR
STARTCHAR uni0017
ENCODING 23
SWIDTH 0 0
DWIDTH 0 0
BBX 1 1 0 0
BITMAP
00
ENDCHAR
STARTCHAR uni0018
ENCODING 24
SWIDTH 0 0
DWIDTH 0 0
BBX 1 1 0 0
BITMAP
00
ENDCHAR
STARTCHAR uni0019
ENCODING 25
SWIDTH 0 0
DWIDTH 0 0
BBX 1 1 0 0
BITMAP
00
ENDCHAR
STARTCHAR space
ENCODING 32
SWIDTH 307 0
DWIDTH 6 0
BBX 1 1 0 0
BITMAP
00
ENDCHAR
STARTCHAR exclam
ENCODING 33
SWIDTH 417 0
DWIDTH 8 0
BBX 8 15 1 0
BITMAP
001F
003E
00BC
01F4
02F0
03D0
07C0
0740
0B00
0A00
0900
0000
3D00
7E00
2D00
ENDCHAR
STARTCHAR quotedbl
ENCODING 34
SWIDTH 437 0
DWIDTH 9 0
BBX 9 5 2 11
BITMAP
1F0F40
2E2E00
3C3C00
743400
202000
ENDCHAR
STARTCHAR numbersign
ENCODING 35
SWIDTH 725 0
DWIDTH 15 0
BBX 13 15 1 0
BITMAP
00074740
000B0F00
000E1E00
001D2D00
002C3800
1FFFFFC0
00B0B000
00E0E000
00D1D000
BFFFFE00
03878000
07474000
070B0000
0A0A0000
0D0C0000
ENDCHAR
STARTCHAR dollar
ENCODING 36
SWIDTH 545 0
DWIDTH 11 0
BBX 11 21 1 -3
BITMAP
000014
0000B4
0000E0
002FD0
01F5B0
03C078
0B4078
0F40B4
0F42F0
0F87D0
0BD000
07E000
02F400
00B800
703C00
B03800
B9B400
2F9000
2C0000
280000
100000
ENDCHAR
STARTCHAR percent
ENCODING 37
SWIDTH 876 0
DWIDTH 18 0
BBX 15 15 1 0
BITMAP
06F40074
1F6C01E0
3D2D03C0
783C0F40
74782D00
78F4B800
2F91E000
00078000
000F06E4
003D1E7C
00B43C3C
02D0B83C
0780B4B8
1E0075E0
28002F80
ENDCHAR
STARTCHAR ampersand
ENCODING 38
SWIDTH 563 0
DWIDTH 11 0
BBX 12 15 0 0
BITMAP
001BE4
00B91C
02E01D
07C02D
0B41F8
0F42F4
0B4040
03FC00
07E400
1F4004
3D0FF8
7C0780
7C0740
3E5E00
0BE400
ENDCHAR
STARTCHAR quotesingle
ENCODING 39
SWIDTH 231 0
DWIDTH 5 0
BBX 4 5 2 11
BITMAP
1F
2E
3C
74
20
ENDCHAR
STARTCHAR parenleft
ENCODING 40
SWIDTH 478 0
DWIDTH 10 0
BBX 10 23 2 -5
BITMAP
000050
0002D0
000B40
002D00
00B400
01E000
03C000
0B4000
1F0000
2D0000
3C0000
7C0000
B80000
B80000
B40000
B40000
B40000
B40000
780000
3C0000
2D0000
0F0000
078000
ENDCHAR
STARTCHAR parenright
ENCODING 41
SWIDTH 478 0
DWIDTH 10 0
BBX 10 23 -2 -5
BITMAP
001400
001E00
000B40
0003C0
0002D0
0001E0
0001E0
0001F0
0001F0
0001E0
0001E0
0002D0
0003D0
0007C0
000B40
000F00
002E00
007C00
00B400
02D000
0B4000
2D0000
A00000
ENDCHAR
STARTCHAR asterisk
ENCODING 42
SWIDTH 518 0
DWIDTH 10 0
BBX 7 8 3 7
BITMAP
02D0
07C0
D740
BABC
2F94
7B40
E2D0
40D0
ENDCHAR
STARTCHAR plus
ENCODING 43
SWIDTH 617 0
DWIDTH 12 0
BBX 10 10 1 2
BITMAP
007000
007000
007000
007000
7FFFF0
00B000
007000
007000
007000
006000
ENDCHAR
STARTCHAR comma
ENCODING 44
SWIDTH 312 0
DWIDTH 6 0
BBX 4 6 0 -3
BITMAP
14
3E
2E
2D
38
A0
ENDCHAR
STARTCHAR hyphen
ENCODING 45
SWIDTH 452 0
DWIDTH 9 0
BBX 6 1 2 6
BITMAP
FFD0
ENDCHAR
STARTCHAR period
ENCODING 46
SWIDTH 270 0
DWIDTH 5 0
BBX 4 3 0 0
BITMAP
7D
7E
3C
ENDCHAR
STARTCHAR slash
ENCODING 47
SWIDTH 405 0
DWIDTH 8 0
BBX 14 21 -2 -3
BITMAP
00000090
000002C0
00000740
00000F00
00002D00
00003800
0000B400
0001E000
0002C000
00074000
000F0000
002D0000
00380000
00B40000
01E00000
02C00000
07800000
0F000000
1D000000
38000000
70000000
ENDCHAR
STARTCHAR zero
ENCODING 48
SWIDTH 621 0
DWIDTH 12 0
BBX 12 15 1 0
BITMAP
000BE4
007D6C
01F01D
03D02D
0B802D
1F003D
2E003C
3D00B8
7C00F4
B801F0
B403D0
B40BC0
B41F00
797D00
1FE000
ENDCHAR
STARTCHAR one
ENCODING 49
SWIDTH 405 0
DWIDTH 8 0
BBX 7 15 1 0
BITMAP
0078
01FC
0BFC
1978
00B4
00F0
01E0
02D0
03C0
0740
0F00
1D00
2C00
3400
5000
ENDCHAR
STARTCHAR two
ENCODING 50
SWIDTH 524 0
DWIDTH 10 0
BBX 11 15 0 0
BITMAP
002F90
01F5B4
03D078
07C078
07D0B4
03D1F0
0007D0
001F80
007E00
01F800
07D000
0F4000
3C0040
BFFFC0
A56F40
ENDCHAR
STARTCHAR three
ENCODING 51
SWIDTH 537 0
DWIDTH 11 0
BBX 10 15 1 0
BITMAP
007F80
02D6E0
0B40F0
0F00F0
1F41E0
0F43D0
001F80
01BE00
02F800
006D00
102E00
B42D00
F07C00
F5F400
6F9000
ENDCHAR
STARTCHAR four
ENCODING 52
SWIDTH 529 0
DWIDTH 11 0
BBX 10 15 1 0
BITMAP
02C000
02D000
03D000
07C000
0B8280
1F03C0
3D07C0
7C0B80
B41F00
7FFFD0
007D40
007400
00F000
01D000
024000
ENDCHAR
STARTCHAR five
ENCODING 53
SWIDTH 540 0
DWIDTH 11 0
BBX 12 15 0 0
BITMAP
003EAB
007BFE
00B054
00E000
02D000
03EF80
0BD7D0
0601E0
0001E0
0002E0
1803D0
3C07C0
780F40
3D7D00
1BE000
ENDCHAR
STARTCHAR six
ENCODING 54
SWIDTH 554 0
DWIDTH 11 0
BBX 11 15 1 0
BITMAP
001BE0
00B974
02E074
0781F4
0F41D0
1E0000
3DBE00
7F9B80
7E03C0
BC03C0
B807C0
B80B80
781F00
3D7D00
0BE000
ENDCHAR
STARTCHAR seven
ENCODING 55
SWIDTH 473 0
DWIDTH 9 0
BBX 9 16 2 -1
BITMAP
641B40
7FFFC0
2F9780
001F00
003D00
00B400
01E000
03C000
0B4000
1F0000
2D0000
7C0000
B80000
B40000
B40000
100000
ENDCHAR
STARTCHAR eight
ENCODING 56
SWIDTH 524 0
DWIDTH 10 0
BBX 10 15 1 0
BITMAP
00BE40
02D7D0
0741F0
0B01F0
0F01E0
0B42D0
0BCB80
03FE00
02F400
1EB800
783C00
F02D00
F01C00
B87800
2F9000
ENDCHAR
STARTCHAR nine
ENCODING 57
SWIDTH 554 0
DWIDTH 11 0
BBX 10 15 1 0
BITMAP
006F80
02E5E0
0B80F0
1F00F0
2E01F0
2D02F0
2D07E0
2E1FD0
0BF7C0
000780
000B40
741E00
F03C00
F5F000
7F4000
ENDCHAR
STARTCHAR colon
ENCODING 58
SWIDTH 312 0
DWIDTH 6 0
BBX 6 10 0 0
BITMAP
0140
0BD0
0BC0
0140
0000
0000
0000
3D00
7E00
2D00
ENDCHAR
STARTCHAR semicolon
ENCODING 59
SWIDTH 312 0
DWIDTH 6 0
BBX 6 12 0 -3
BITMAP
07C0
0BD0
0780
0000
0000
0000
1400
3E00
2E00
2D00
3800
A000
ENDCHAR
STARTCHAR less
ENCODING 60
SWIDTH 637 0
DWIDTH 13 0
BBX 11 11 1 1
BITMAP
000074
0002E0
002F40
01F800
1F9000
7D0000
2F4000
06E400
007E00
0007D0
0000B4
ENDCHAR
STARTCHAR equal
ENCODING 61
SWIDTH 617 0
DWIDTH 12 0
BBX 11 5 1 5
BITMAP
7FFFF4
000000
000000
000000
7FFFF4
ENDCHAR
STARTCHAR greater
ENCODING 62
SWIDTH 606 0
DWIDTH 12 0
BBX 11 11 1 1
BITMAP
740000
2F4000
06E400
007E00
000BD0
0002F4
001B90
00BD00
07D000
2E0000
640000
ENDCHAR
STARTCHAR question
ENCODING 63
SWIDTH 516 0
DWIDTH 10 0
BBX 10 15 1 0
BITMAP
006F40
01E5D0
03C0E0
03D1E0
0283D0
001F80
007E00
01F800
07D000
0B4000
0A0000
000000
3D0000
7E0000
2D0000
ENDCHAR
STARTCHAR at
ENCODING 64
SWIDTH 905 0
DWIDTH 18 0
BBX 17 16 1 -2
BITMAP
0006BF9000
002E55BC00
01D0001F00
0740000740
1D01F68380
2C0B5F8380
742D0F4380
B47C1E0740
F0B82D0B00
F0B47C1D00
F0B5AC7800
F03E1FD000
B800000000
3D00000000
1F80140000
02FFE40000
ENDCHAR
STARTCHAR A
ENCODING 65
SWIDTH 615 0
DWIDTH 12 0
BBX 15 15 -2 0
BITMAP
000001BC
00000BB8
00002CB4
0000B0F0
0002D1E0
000743D0
000E07C0
002FFFF4
01FEAFA0
00B00F00
01E01E00
02C02E00
0B402D00
2E002E40
78001F80
ENDCHAR
STARTCHAR B
ENCODING 66
SWIDTH 551 0
DWIDTH 11 0
BBX 11 15 1 0
BITMAP
06BF90
3F91B4
29407C
03D03C
0BC07C
1F40B8
2F02E0
3D1F80
7FFE00
B95F40
F00780
F00B80
E01F40
B5BD00
6F9000
ENDCHAR
STARTCHAR C
ENCODING 67
SWIDTH 533 0
DWIDTH 11 0
BBX 11 15 1 0
BITMAP
000BE0
007D68
02E02C
07C03C
0F40B8
2E03F4
3D02D0
BC0000
B80000
F40000
F40000
F40000
B80200
7D5F00
1BE800
ENDCHAR
STARTCHAR D
ENCODING 68
SWIDTH 630 0
DWIDTH 13 0
BBX 12 15 1 0
BITMAP
1AFF90
3F51B8
14402D
02E01E
07D01F
0B801F
0F401E
2E002E
3D007C
7C00F8
B802F0
B40BC0
F02F00
F5F800
6F9000
ENDCHAR
STARTCHAR E
ENCODING 69
SWIDTH 509 0
DWIDTH 10 0
BBX 11 15 1 0
BITMAP
002FE0
01F978
07D038
0F40B4
1E07F0
2D0780
2D0000
0F6400
0BF400
2F4000
BC0000
F40100
F00E00
B57D00
2FE000
ENDCHAR
STARTCHAR F
ENCODING 70
SWIDTH 518 0
DWIDTH 10 0
BBX 13 15 0 0
BITMAP
0BF94240
2FFFFE00
3D0F0000
181E0000
002D0000
007C0000
00B80000
00FFD000
07FFE000
02E00000
03D00000
07C00000
0F400000
2E000000
78000000
ENDCHAR
STARTCHAR G
ENCODING 71
SWIDTH 598 0
DWIDTH 12 0
BBX 11 15 1 0
BITMAP
000BE0
007D68
01F02C
07C03C
0F40BC
2F02F4
3D02D0
7C0000
B80514
F41FF8
F40BE0
F40740
B40B00
7D6D00
1BE000
ENDCHAR
STARTCHAR H
ENCODING 72
SWIDTH 668 0
DWIDTH 13 0
BBX 15 15 -1 0
BITMAP
02FD0028
02AE007C
002E0078
003D00B4
003C00F0
007801E0
00BEFFF4
03F55BE0
02E00B80
02D00F40
07801F00
0B402E00
1E002D00
3C003D40
B4001F40
ENDCHAR
STARTCHAR I
ENCODING 73
SWIDTH 327 0
DWIDTH 7 0
BBX 7 15 0 0
BITMAP
07F4
067C
007C
00B8
00B4
00F4
01F0
02E0
03D0
07C0
0B40
1F00
2D00
B800
E000
ENDCHAR
STARTCHAR J
ENCODING 74
SWIDTH 393 0
DWIDTH 8 0
BBX 13 20 -4 -5
BITMAP
0002FE00
001F9F40
002D0F40
00000F40
00001F00
00002E00
00003D00
00007C00
0000B800
0000F400
0002F000
0003D000
0007C000
000F4000
002F0000
007D0000
00F40000
02E00000
1B800000
79000000
ENDCHAR
STARTCHAR K
ENCODING 75
SWIDTH 616 0
DWIDTH 12 0
BBX 14 15 -1 0
BITMAP
06F801D0
067D01F0
003D01F0
007C03E0
007C07C0
00B81F00
00F47800
01F2D000
02FF4000
03EF4000
07C7C000
0F42E000
1F01F400
7D00BD00
B4001F80
ENDCHAR
STARTCHAR L
ENCODING 76
SWIDTH 517 0
DWIDTH 10 0
BBX 13 15 -1 0
BITMAP
0001B900
00079B00
000F0740
002E0B40
007C1F00
00B87D00
00F5F800
01F05000
02D00000
07C00000
0B800000
0F000000
2D154000
7EFFF000
3E95B400
ENDCHAR
STARTCHAR M
ENCODING 77
SWIDTH 931 0
DWIDTH 19 0
BBX 21 15 -2 0
BITMAP
000007D00B80
00002FD03F80
0000B7C0EB40
0001DB82DF00
00038F476E00
000B1F0A3D00
001D2E1D7C00
003C3D28B800
00743C74F400
00E07CA0F000
02D079C1F000
07807A82E000
0F007F02E000
2D007D01E100
F4003800BD00
ENDCHAR
STARTCHAR N
ENCODING 78
SWIDTH 708 0
DWIDTH 14 0
BBX 16 15 0 0
BITMAP
000B4078
002F407D
007F403D
00EB403D
02CF403C
038F4078
0B0B40B0
0E0B81E0
1D0B82C0
2C07C340
3803DB00
7803ED00
7401FC00
B400F800
70007400
ENDCHAR
STARTCHAR O
ENCODING 79
SWIDTH 655 0
DWIDTH 13 0
BBX 13 15 1 0
BITMAP
000BF800
007D5E00
01F40B40
07D00B40
0B800B40
1F000F40
3E001F00
7C002E00
78003D00
B8007C00
B400F400
B402E000
B40B8000
3D6E0000
0BE40000
ENDCHAR
STARTCHAR P
ENCODING 80
SWIDTH 553 0
DWIDTH 11 0
BBX 14 15 -1 0
BITMAP
006FF900
02F95B80
015D02D0
002D02D0
007C03D0
00B80B80
00F46F00
01F6F800
02FE9000
03D00000
07C00000
0F400000
1E000000
3C000000
B4000000
ENDCHAR
STARTCHAR Q
ENCODING 81
SWIDTH 655 0
DWIDTH 13 0
BBX 14 18 1 -3
BITMAP
001BF400
00BD1D00
02E00F00
07C00F40
0F400F40
2E000F00
3D001F00
7C003D00
78007C00
7800F400
7C02E000
3E0B8000
092E0000
02F40000
1FFD0000
002F8000
0002F410
00006FC0
ENDCHAR
STARTCHAR R
ENCODING 82
SWIDTH 623 0
DWIDTH 12 0
BBX 14 15 -1 0
BITMAP
006BF900
02F95780
019502D0
001E02D0
003D03D0
007C07C0
00B81F40
00F5BD00
01FFE000
02DB8000
07C3D000
0B81E000
1F00F400
2D007D40
74002F80
ENDCHAR
STARTCHAR S
ENCODING 83
SWIDTH 474 0
DWIDTH 9 0
BBX 11 15 0 0
BITMAP
002FD0
00F474
02D038
07803C
0B80B8
0B81F4
0BC2E0
07D000
03F000
01F800
007C00
342D00
742C00
7D7400
1F9000
ENDCHAR
STARTCHAR T
ENCODING 84
SWIDTH 471 0
DWIDTH 9 0
BBX 12 15 1 0
BITMAP
1FE505
7FFFFC
B42E00
603C00
007C00
00B800
00F400
01F000
02E000
03D000
07C000
0B4000
1F0000
2D0000
B40000
ENDCHAR
STARTCHAR U
ENCODING 85
SWIDTH 624 0
DWIDTH 12 0
BBX 14 15 0 0
BITMAP
00F400E0
00B802E0
00B403D0
00F00B80
02E00F40
03D02F00
07C03E00
0F40BD00
1F01FC00
2E02F800
3D07B400
7C0DB400
B824F000
B990F500
2E407E00
ENDCHAR
STARTCHAR V
ENCODING 86
SWIDTH 587 0
DWIDTH 12 0
BBX 14 15 1 0
BITMAP
1BD00780
3FF407D0
14B403D0
01F403C0
02E00B80
07D01F40
0B803D00
0F40B800
2E02E000
3D0B8000
3C2D0000
78B40000
7AD00000
3F400000
2D000000
ENDCHAR
STARTCHAR W
ENCODING 87
SWIDTH 941 0
DWIDTH 19 0
BBX 19 15 1 0
BITMAP
1BD00000B4
7FF00000F8
14B40000BC
01F00680BC
03E02F4078
07C0BE00B8
0F82FC00B4
1F07F800F0
2E1EB401E0
3C3DF003C0
78B1E00B40
B5D1E01E00
B781E03800
7E00F5E000
2C007E4000
ENDCHAR
STARTCHAR X
ENCODING 88
SWIDTH 552 0
DWIDTH 11 0
BBX 15 15 -1 0
BITMAP
000A007C
002E02F4
002E0B80
002D1E00
002E7800
002EF000
001FD000
001F4000
001F0000
003F4000
00FB8000
02D7C000
0B43E000
2D01FB00
F4007D00
ENDCHAR
STARTCHAR Y
ENCODING 89
SWIDTH 580 0
DWIDTH 12 0
BBX 14 20 0 -5
BITMAP
01F400E0
00B802E0
00B403C0
01F00B80
02E00F40
03D02F00
07C07E00
0F40BC00
1F01F800
2E02F400
3C07B000
780DE000
B826D000
B9938000
2E4B0000
001E0000
00780000
01F00000
07C00000
2E000000
ENDCHAR
STARTCHAR Z
ENCODING 90
SWIDTH 501 0
DWIDTH 10 0
BBX 13 15 -1 0
BITMAP
01906B40
01FFFFC0
00BE5F80
00003E00
0000B800
0002E000
000B8000
002E0000
00B80000
01E00000
07800000
0F000000
2D6BD000
7FFFF000
3E406400
ENDCHAR
STARTCHAR bracketleft
ENCODING 91
SWIDTH 396 0
DWIDTH 8 0
BBX 11 21 0 -3
BITMAP
0002E4
000B80
000F40
001F00
002D00
003C00
007800
00B400
00F000
01E000
02D000
03C000
078000
0B4000
0F0000
1E0000
2D0000
3C0000
780000
B40000
FE0000
ENDCHAR
STARTCHAR backslash
ENCODING 92
SWIDTH 464 0
DWIDTH 9 0
BBX 7 21 1 -3
BITMAP
D000
F000
B000
7400
3800
2C00
2C00
1D00
0E00
0B00
0B00
0740
0380
02C0
02C0
01D0
00E0
00B0
0070
0074
0028
ENDCHAR
STARTCHAR bracketright
ENCODING 93
SWIDTH 394 0
DWIDTH 8 0
BBX 11 21 -1 -3
BITMAP
000BF4
0001F0
0001E0
0002D0
0003C0
000780
000B40
000F00
001E00
002D00
003C00
007800
00B400
00F000
01E000
02D000
03C000
078000
0B4000
1F0000
BD0000
ENDCHAR
STARTCHAR asciicircum
ENCODING 94
SWIDTH 540 0
DWIDTH 11 0
BBX 9 8 2 7
BITMAP
01D000
03E000
07F000
0F7800
2D2C00
380E00
B00B00
D00240
ENDCHAR
STARTCHAR underscore
ENCODING 95
SWIDTH 530 0
DWIDTH 11 0
BBX 13 1 -3 -3
BITMAP
FFFFFF80
ENDCHAR
STARTCHAR grave
ENCODING 96
SWIDTH 219 0
DWIDTH 4 0
BBX 4 5 0 10
BITMAP
2C
7C
3C
1D
05
ENDCHAR
STARTCHAR a
ENCODING 97
SWIDTH 541 0
DWIDTH 11 0
BBX 11 11 0 -1
BITMAP
006E78
02E6F8
0B81F0
1F02E0
2D03C0
3C0B80
7C0F40
7C2F40
3DABA0
1F87E0
000140
ENDCHAR
STARTCHAR b
ENCODING 98
SWIDTH 525 0
DWIDTH 11 0
BBX 9 17 1 0
BITMAP
014000
03C000
03C000
078000
0B4000
0F0000
1E0000
1D7E00
2E9B40
3F0B80
7D0B80
B80B80
F00F40
E02F00
E07D00
F6F400
2F8000
ENDCHAR
STARTCHAR c
ENCODING 99
SWIDTH 465 0
DWIDTH 9 0
BBX 9 10 0 0
BITMAP
006F40
02E6C0
0B82C0
1F07C0
3D0B40
3C0000
7C0000
7C0100
3D5D00
0BE400
ENDCHAR
STARTCHAR d
ENCODING 100
SWIDTH 557 0
DWIDTH 11 0
BBX 12 17 1 0
BITMAP
000005
00001F
00002D
00003C
000078
0000B4
0000F0
01BAE0
0797D0
1E03C0
3C07C0
B80B80
F41F40
F02F00
F07E00
F5DE50
7E4B90
ENDCHAR
STARTCHAR e
ENCODING 101
SWIDTH 471 0
DWIDTH 9 0
BBX 9 10 0 0
BITMAP
006F40
02E7C0
0B83C0
1F07C0
2E1F40
3EBD00
7E5000
3C0100
2E5B00
0BF800
ENDCHAR
STARTCHAR f
ENCODING 102
SWIDTH 393 0
DWIDTH 8 0
BBX 12 19 -1 -3
BITMAP
0001F8
00079E
000F1E
001E3D
002D28
003C00
007800
00BE80
07FFD0
0AE000
02D000
03D000
07C000
0B8000
0F4000
1F0000
2E0000
3D0000
780000
ENDCHAR
STARTCHAR g
ENCODING 103
SWIDTH 526 0
DWIDTH 11 0
BBX 11 16 0 -6
BITMAP
006E10
02E6F8
0B80F4
1F01F0
2E02E0
3D07D0
7C0BC0
7C2F80
3DBF40
1F8F00
001D00
003C00
00B400
01E000
1B8000
190000
ENDCHAR
STARTCHAR h
ENCODING 104
SWIDTH 555 0
DWIDTH 11 0
BBX 11 17 0 0
BITMAP
001000
007800
00B800
00B400
00F400
01F000
01E000
02D2E0
03CBF4
07A8F4
0BA1F0
0F82E0
1F47C0
3D0B80
7C0F40
B40F50
A007D0
ENDCHAR
STARTCHAR i
ENCODING 105
SWIDTH 286 0
DWIDTH 6 0
BBX 7 15 0 0
BITMAP
01F4
02F4
00A0
0000
0000
0BC0
07C0
0780
0B40
1E00
2D00
3C00
7800
7F00
2E00
ENDCHAR
STARTCHAR j
ENCODING 106
SWIDTH 281 0
DWIDTH 6 0
BBX 10 20 -4 -5
BITMAP
0002E0
0003E0
000290
000000
000000
000B80
000B80
000B80
000B40
000F40
000F00
001E00
002D00
007C00
00B400
00F000
02D000
078000
1E0000
780000
ENDCHAR
STARTCHAR k
ENCODING 107
SWIDTH 497 0
DWIDTH 10 0
BBX 10 17 0 0
BITMAP
001000
007800
00B800
00B400
00F000
01F000
01E000
02D2E0
03C1F0
0782E0
0B1B80
0FB900
1FE000
3DF000
78B800
B47F90
A01F80
ENDCHAR
STARTCHAR l
ENCODING 108
SWIDTH 279 0
DWIDTH 6 0
BBX 7 17 0 0
BITMAP
0050
00B4
00F4
00F0
01F0
02E0
03D0
03C0
0780
0B40
0F00
1E00
2D00
3C00
7800
7940
2E00
ENDCHAR
STARTCHAR m
ENCODING 109
SWIDTH 814 0
DWIDTH 16 0
BBX 16 10 0 0
BITMAP
0B82E078
07CBF2FD
07ACB72D
0BB0EC3C
0FC1F4B8
1F43E0F0
3D07C1E0
7C0B42D0
B41F02FC
B01D01F4
ENDCHAR
STARTCHAR n
ENCODING 110
SWIDTH 561 0
DWIDTH 11 0
BBX 11 10 0 0
BITMAP
0B82E0
07CBF4
07A8B4
0BA1F0
0FC2E0
1F43D0
3D0780
7C0B40
B40B50
B007E0
ENDCHAR
STARTCHAR o
ENCODING 111
SWIDTH 514 0
DWIDTH 10 0
BBX 10 10 0 0
BITMAP
007F40
02E7D0
0B82D0
1F02E0
2E03D0
3D07C0
7C0B80
7C1F00
3D7D00
1BE000
ENDCHAR
STARTCHAR p
ENCODING 112
SWIDTH 550 0
DWIDTH 11 0
BBX 13 15 -2 -5
BITMAP
00F4BD00
00BB9F00
00BD0F40
00F80F40
01F01F00
02E02E00
02D03D00
03D0B800
07E6E000
0B6E4000
0F000000
1E000000
2D000000
3C000000
74000000
ENDCHAR
STARTCHAR q
ENCODING 113
SWIDTH 533 0
DWIDTH 11 0
BBX 10 15 1 -5
BITMAP
01BD40
079BE0
1E07D0
7C0BC0
B80B80
F41F00
F02E00
F07D00
F5EC00
7E7800
00B400
00F000
00E000
00E000
00A000
ENDCHAR
STARTCHAR r
ENCODING 114
SWIDTH 407 0
DWIDTH 8 0
BBX 9 10 0 0
BITMAP
0B4780
0B9FC0
0BBA80
0B9000
0F8000
1F0000
2E0000
3C0000
B80000
740000
ENDCHAR
STARTCHAR s
ENCODING 115
SWIDTH 423 0
DWIDTH 8 0
BBX 9 10 0 0
BITMAP
01BD00
0B5B40
0F0B40
0F4500
0BC000
03E000
01F400
70F400
B9E000
2F8000
ENDCHAR
STARTCHAR t
ENCODING 116
SWIDTH 358 0
DWIDTH 7 0
BBX 8 13 1 0
BITMAP
0050
02E0
03C0
2FFD
0F40
1E00
2D00
3C00
7800
7800
7810
7ED0
2E40
ENDCHAR
STARTCHAR u
ENCODING 117
SWIDTH 553 0
DWIDTH 11 0
BBX 11 10 0 0
BITMAP
0B8038
07C0B8
07C0F4
0B82E0
1F07D0
2E0BC0
3D2B80
7C6740
798B50
3E07D0
ENDCHAR
STARTCHAR v
ENCODING 118
SWIDTH 510 0
DWIDTH 10 0
BBX 10 10 0 0
BITMAP
0782D0
07C1F0
0781F0
0B41E0
1F01D0
2E03C0
3C0740
781D00
7EB400
2F8000
ENDCHAR
STARTCHAR w
ENCODING 119
SWIDTH 750 0
DWIDTH 15 0
BBX 15 10 0 0
BITMAP
0B8000B4
0BC0F0B8
0782E078
0B43D078
0F0B80B4
1E1F40E0
2D7B41D0
3DDB4740
7F47AE00
3902E400
ENDCHAR
STARTCHAR x
ENCODING 120
SWIDTH 467 0
DWIDTH 9 0
BBX 11 10 -1 0
BITMAP
00907C
02D1F4
02D780
02EE00
01FC00
01F400
01F400
07F800
1E3D40
741F80
ENDCHAR
STARTCHAR y
ENCODING 121
SWIDTH 549 0
DWIDTH 11 0
BBX 11 16 0 -6
BITMAP
078028
07C078
07C0F4
0B82F0
0F43E0
2F0BD0
3D1FC0
7C7780
79DB40
2E0F00
001E00
003C00
00B400
01E000
1B8000
190000
ENDCHAR
STARTCHAR z
ENCODING 122
SWIDTH 430 0
DWIDTH 9 0
BBX 9 10 0 0
BITMAP
0A9680
07FBC0
001F40
007D00
01F400
0BD000
1F0000
7C1000
BFFC00
B96D00
ENDCHAR
STARTCHAR braceleft
ENCODING 123
SWIDTH 424 0
DWIDTH 9 0
BBX 10 21 1 -3
BITMAP
0002E0
000F40
001E00
002D00
003C00
003C00
007800
00B400
01F000
07D000
3F8000
2D0000
0E0000
0F0000
1E0000
2D0000
7C0000
B80000
F40000
F40000
BD0000
ENDCHAR
STARTCHAR bar
ENCODING 124
SWIDTH 306 0
DWIDTH 6 0
BBX 3 21 2 -3
BITMAP
74
74
B4
B4
B4
B4
B4
B4
B4
B4
B4
B4
B4
B4
B4
B4
B4
B4
B4
B4
60
ENDCHAR
STARTCHAR braceright
ENCODING 125
SWIDTH 424 0
DWIDTH 9 0
BBX 10 21 -1 -3
BITMAP
0007D0
0002E0
0001E0
0002D0
0003C0
000780
000B40
000F00
000F00
000E00
000B40
002F80
00B900
01F000
02D000
03C000
078000
0B8000
0F4000
2E0000
FC0000
ENDCHAR
STARTCHAR asciitilde
ENCODING 126
SWIDTH 624 0
DWIDTH 12 0
BBX 11 4 1 5
BITMAP
0BE00C
2FF828
70BFF4
901F80
ENDCHAR
STARTCHAR nonbreakingspace
ENCODING 160
SWIDTH 293 0
DWIDTH 6 0
BBX 1 1 0 0
BITMAP
00
ENDCHAR
STARTCHAR exclamdown
ENCODING 161
SWIDTH 417 0
DWIDTH 8 0
BBX 8 16 0 -5
BITMAP
002D
007E
007D
0000
0090
01C0
0380
0B40
0F00
1F00
2E00
3D00
7C00
7C00
7800
2800
ENDCHAR
STARTCHAR cent
ENCODING 162
SWIDTH 487 0
DWIDTH 10 0
BBX 9 15 1 0
BITMAP
000780
000B00
001E00
01FE00
0BD740
1F4740
3D0F40
7C0E00
780000
780000
7D1D00
1FF400
0A0000
0D0000
0C0000
ENDCHAR
STARTCHAR sterling
ENCODING 163
SWIDTH 665 0
DWIDTH 13 0
BBX 15 15 -1 0
BITMAP
00000BD0
00003D74
0000B434
0001F074
0002E0F4
0007C2E0
000B8BD0
000F4140
01BFF400
007E1000
003D0000
1FF80000
75FE4180
76EBFF80
2F41BE00
ENDCHAR
STARTCHAR currency
ENCODING 164
SWIDTH 572 0
DWIDTH 11 0
BBX 11 13 1 0
BITMAP
018004
02C078
02EEE0
02E7C0
0B82D0
1F03D0
2E07C0
2D0B80
2D1F40
2D3D00
3FFD00
A00A00
400100
ENDCHAR
STARTCHAR yen
ENCODING 165
SWIDTH 583 0
DWIDTH 12 0
BBX 13 15 1 0
BITMAP
7D0007C0
BF001F80
0F407E00
0780F800
03C2E000
01D7C000
00DB4000
00EE0000
00BD0000
1FFE4000
05F40000
3FFF0000
06D40000
03C00000
03800000
ENDCHAR
STARTCHAR brokenbar
ENCODING 166
SWIDTH 292 0
DWIDTH 6 0
BBX 2 21 2 -3
BITMAP
70
B0
B0
B0
B0
B0
B0
B0
A0
00
00
00
70
B0
B0
B0
B0
B0
B0
B0
A0
ENDCHAR
STARTCHAR section
ENCODING 167
SWIDTH 583 0
DWIDTH 12 0
BBX 12 20 0 -4
BITMAP
0006F8
001E5E
003C0B
007C0F
007C7E
007D78
003E00
01FF40
078BC0
0F07D0
0F02E0
0F41E0
0BC1E0
07E7C0
02FE00
00F800
707800
B07800
B4B400
7F9000
ENDCHAR
STARTCHAR dieresis
ENCODING 168
SWIDTH 412 0
DWIDTH 8 0
BBX 8 3 1 12
BITMAP
B47C
F8BD
A478
ENDCHAR
STARTCHAR copyright
ENCODING 169
SWIDTH 871 0
DWIDTH 17 0
BBX 16 15 1 0
BITMAP
000AFE40
007946E0
02D1B878
0B4B9A2C
1E1E0A1D
2C3D1E0E
38787D0E
74B8740E
74B4001D
74B4002C
74786474
3C1FE0E0
1E000780
07906E00
00BFE400
ENDCHAR
STARTCHAR ordfeminine
ENCODING 170
SWIDTH 564 0
DWIDTH 11 0
BBX 9 9 2 6
BITMAP
01BAC0
0B9FC0
1E0B40
3C0F00
781E00
B43D00
B4BC00
B5EC00
3E5F40
ENDCHAR
STARTCHAR guillemotleft
ENCODING 171
SWIDTH 662 0
DWIDTH 13 0
BBX 12 8 1 2
BITMAP
002409
01E078
1F47D0
7D1F40
781E00
2E0B80
0B82E0
02C0B0
ENDCHAR
STARTCHAR logicalnot
ENCODING 172
SWIDTH 729 0
DWIDTH 15 0
BBX 12 6 1 2
BITMAP
7FFFFE
00000E
00000E
00000E
00000E
00000D
ENDCHAR
STARTCHAR uni00AD
ENCODING 173
SWIDTH 833 0
DWIDTH 17 0
BBX 1 1 0 0
BITMAP
00
ENDCHAR
STARTCHAR registered
ENCODING 174
SWIDTH 742 0
DWIDTH 15 0
BBX 13 13 2 2
BITMAP
00AF9000
07947800
1D6A4E00
35E6C700
A061C340
D0A78340
D0FD0700
D1DD0A00
D34B5D00
B1017800
3D06E000
0BFE4000
00100000
ENDCHAR
STARTCHAR macron
ENCODING 175
SWIDTH 392 0
DWIDTH 8 0
BBX 8 1 1 12
BITMAP
7FFD
ENDCHAR
STARTCHAR degree
ENCODING 176
SWIDTH 405 0
DWIDTH 8 0
BBX 7 6 2 9
BITMAP
0BE0
3D78
B478
B0B4
B5F0
7F80
ENDCHAR
STARTCHAR plusminus
ENCODING 177
SWIDTH 617 0
DWIDTH 12 0
BBX 10 13 1 0
BITMAP
007000
007000
007000
007000
7FFFF0
00B000
007000
007000
007000
006000
000000
000000
7FFFF0
ENDCHAR
STARTCHAR twosuperior
ENCODING 178
SWIDTH 458 0
DWIDTH 9 0
BBX 9 10 1 5
BITMAP
01BD00
079B40
0B4740
0B4B40
026F00
00BD00
02F400
1F8000
3D0400
7AFC00
ENDCHAR
STARTCHAR threesuperior
ENCODING 179
SWIDTH 430 0
DWIDTH 9 0
BBX 9 11 1 4
BITMAP
00BD00
039B40
074B40
074F40
012E00
01F800
01B400
147800
747800
75F400
2F8000
ENDCHAR
STARTCHAR acute
ENCODING 180
SWIDTH 322 0
DWIDTH 6 0
BBX 5 5 2 11
BITMAP
0600
0F40
1F00
7C00
E000
ENDCHAR
STARTCHAR mu
ENCODING 181
SWIDTH 618 0
DWIDTH 12 0
BBX 13 15 -1 -5
BITMAP
00280380
00B80B80
01F01F00
02E03E00
03D07C00
0B80F800
0F82F400
1F4AB400
2FF8BF00
3EE07D00
38000000
78000000
74000000
B4000000
70000000
ENDCHAR
STARTCHAR paragraph
ENCODING 182
SWIDTH 739 0
DWIDTH 15 0
BBX 17 17 0 -1
BITMAP
00006BFF80
0007FE6D00
002FF83C00
00BFF47C00
00FFF4B800
01FFF0B400
00FFE0F000
007FD1E000
001BD2D000
0007C3C000
000B838000
000F474000
051F0B0000
2E2D0E0000
7C3C2D0000
78B4380000
2FD0700000
ENDCHAR
STARTCHAR periodcentered
ENCODING 183
SWIDTH 353 0
DWIDTH 7 0
BBX 4 3 2 5
BITMAP
7D
BE
78
ENDCHAR
STARTCHAR cedilla
ENCODING 184
SWIDTH 301 0
DWIDTH 6 0
BBX 4 5 1 -4
BITMAP
18
0A
0E
6D
78
ENDCHAR
STARTCHAR onesuperior
ENCODING 185
SWIDTH 403 0
DWIDTH 8 0
BBX 6 11 2 4
BITMAP
01E0
07F0
2FE0
66D0
03C0
0780
0B40
1E00
2D00
7400
5000
ENDCHAR
STARTCHAR ordmasculine
ENCODING 186
SWIDTH 498 0
DWIDTH 10 0
BBX 8 9 2 6
BITMAP
01B8
0B9E
2E0F
7C0F
B81E
B42D
B07C
B5F4
2F90
ENDCHAR
STARTCHAR guillemotright
ENCODING 187
SWIDTH 665 0
DWIDTH 13 0
BBX 11 8 1 2
BITMAP
2D0B40
1F07C0
07C1F0
01F078
02E0B8
0B82E0
791E00
902400
ENDCHAR
STARTCHAR onequarter
ENCODING 188
SWIDTH 988 0
DWIDTH 20 0
BBX 16 16 2 0
BITMAP
00000740
02D00F00
0BE02D00
7FD03800
57C0B400
0781E240
0B43C3C0
1F0747C0
2D0E0B8A
382D0F0F
B0782E1E
40B03C2D
01E02FFF
03C005B4
074000E0
0E000280
ENDCHAR
STARTCHAR onehalf
ENCODING 189
SWIDTH 988 0
DWIDTH 20 0
BBX 17 16 2 0
BITMAP
0000074000
02D00F0000
0BE02D0000
6FD0380000
A7C0B40000
0781E00000
0B43C1BD00
0E07479B40
2D0E0B4780
382D074B40
B078002F00
40B000BD00
01E002E000
03C01F8000
07403D1800
0E007FF800
ENDCHAR
STARTCHAR threequarters
ENCODING 190
SWIDTH 1007 0
DWIDTH 20 0
BBX 18 16 1 0
BITMAP
0000007400
02F800F000
0B6E02D000
1E1E078000
092D0B4000
01F81E2400
07D03C3800
10F0747800
E0F0E0B4D0
E2D2D0E1D0
7E4782D2D0
000B0387C0
001D02FFD0
003C001E00
0074001D00
00E0002400
ENDCHAR
STARTCHAR questiondown
ENCODING 191
SWIDTH 516 0
DWIDTH 10 0
BBX 10 15 0 -4
BITMAP
000780
000BD0
000780
000000
000A00
001E00
007C00
02F400
0BD000
3F4000
BC2400
F07C00
E07C00
B0B400
2FD000
ENDCHAR
STARTCHAR Agrave
ENCODING 192
SWIDTH 615 0
DWIDTH 12 0
BBX 15 20 -2 0
BITMAP
00000140
000003C0
000003D0
000000B4
00000000
000001BC
00000BB8
00002CB4
0000B0F0
0002D1E0
000743D0
000E07C0
002FFFF4
01FEAFA0
00B00F00
01E01E00
02C02E00
0B402D00
2E002E40
78001F80
ENDCHAR
STARTCHAR Aacute
ENCODING 193
SWIDTH 615 0
DWIDTH 12 0
BBX 16 20 -2 0
BITMAP
00000005
0000000F
0000002E
00000074
00000000
000001BC
00000BB8
00002CB4
0000B0F0
0002D1E0
000743D0
000E07C0
002FFFF4
01FEAFA0
00B00F00
01E01E00
02C02E00
0B402D00
2E002E40
78001F80
ENDCHAR
STARTCHAR Acircumflex
ENCODING 194
SWIDTH 615 0
DWIDTH 12 0
BBX 16 20 -2 0
BITMAP
00000014
0000007C
000002EE
00000E4B
00000000
000001BC
00000BB8
00002CB4
0000B0F0
0002D1E0
000743D0
000E07C0
002FFFF4
01FEAFA0
00B00F00
01E01E00
02C02E00
0B402D00
2E002E40
78001F80
ENDCHAR
STARTCHAR Atilde
ENCODING 195
SWIDTH 615 0
DWIDTH 12 0
BBX 17 19 -2 0
BITMAP
000006E080
00001FFF40
0000000000
0000000000
000001BC00
00000BB800
00002CB400
0000B0F000
0002D1E000
000743D000
000E07C000
002FFFF400
01FEAFA000
00B00F0000
01E01E0000
02C02E0000
0B402D0000
2E002E4000
78001F8000
ENDCHAR
STARTCHAR Adieresis
ENCODING 196
SWIDTH 615 0
DWIDTH 12 0
BBX 17 19 -2 0
BITMAP
00000F4780
00001F8FC0
00000A0740
0000000000
000001BC00
00000BB800
00002CB400
0000B0F000
0002D1E000
000743D000
000E07C000
002FFFF400
01FEAFA000
00B00F0000
01E01E0000
03C02E0000
0B402D0000
2E002F9000
78001F8000
ENDCHAR
STARTCHAR Aring
ENCODING 197
SWIDTH 615 0
DWIDTH 12 0
BBX 16 19 -2 0
BITMAP
000000BD
000002DB
0000038B
0000079E
000003FC
00000BF8
00002D74
0000B4F0
0002D1E0
000783D0
000F07C0
002FFFF4
01FFFFE0
00B00F00
01E01E00
02C02E00
0B402D00
2E002E40
78001F80
ENDCHAR
STARTCHAR AE
ENCODING 198
SWIDTH 878 0
DWIDTH 18 0
BBX 21 15 -2 0
BITMAP
000001BAFE40
00000BFF96C0
00002E7E02C0
0000B8B807C0
0001E0F42F40
0003C1F03D00
000B40F00000
001FAFFA8000
00BFFFFF4000
00F402F40000
01E007D00000
03C00B802000
0B800B80B000
1F0007D7D000
780001FE4000
ENDCHAR
STARTCHAR Ccedilla
ENCODING 199
SWIDTH 533 0
DWIDTH 11 0
BBX 11 20 1 -5
BITMAP
000BE0
007D6C
02F02C
07C03C
0F40B8
2E02F4
3D02D0
7C0000
B80000
F40000
F40000
F40000
B80200
7D5F00
1FE800
070000
074000
0B4000
3E0000
140000
ENDCHAR
STARTCHAR Egrave
ENCODING 200
SWIDTH 509 0
DWIDTH 10 0
BBX 11 20 1 0
BITMAP
000500
001E00
001F40
0006C0
000000
002FE0
01F978
07D038
0F40B4
1E07F0
2D0780
2D0000
0F6400
0BF400
2F4000
BC0000
F40100
F00E00
B57D00
2FE000
ENDCHAR
STARTCHAR Eacute
ENCODING 201
SWIDTH 509 0
DWIDTH 10 0
BBX 11 20 1 0
BITMAP
000014
00007C
0000B4
000290
000000
002FE0
01F978
07D038
0F40B4
1E07F0
2D0780
2D0000
0F6400
0BF400
2F4000
BC0000
F40100
F00E00
B57D00
2FE000
ENDCHAR
STARTCHAR Ecircumflex
ENCODING 202
SWIDTH 509 0
DWIDTH 10 0
BBX 11 20 1 0
BITMAP
000050
0001F0
001BB4
00783C
000000
002FE0
01F978
07D038
0F40B4
1E07F0
2D0780
2D0000
0F6400
0BF400
2F4000
BC0000
F40100
F00E00
B57D00
2FE000
ENDCHAR
STARTCHAR Edieresis
ENCODING 203
SWIDTH 509 0
DWIDTH 10 0
BBX 12 19 1 0
BITMAP
007C2E
00BD3E
006829
000000
002FE0
01F978
07D038
0F40B4
1E07F0
2D0780
2D0000
0F6400
0BF400
2F4000
BC0000
F40100
F00E00
B57D00
2FE000
ENDCHAR
STARTCHAR Igrave
ENCODING 204
SWIDTH 327 0
DWIDTH 7 0
BBX 8 20 0 0
BITMAP
0050
00F0
00F8
002D
0000
07F4
067C
007C
00B8
00B4
00F4
01F0
02E0
03D0
07C0
0B40
1F00
2D00
B800
E000
ENDCHAR
STARTCHAR Iacute
ENCODING 205
SWIDTH 327 0
DWIDTH 7 0
BBX 9 20 0 0
BITMAP
000140
0003C0
000B80
001D00
000000
07F400
067C00
007C00
00B800
00B400
00F400
01F000
02E000
03D000
07C000
0B4000
1F0000
2D0000
B80000
E00000
ENDCHAR
STARTCHAR Icircumflex
ENCODING 206
SWIDTH 327 0
DWIDTH 7 0
BBX 10 20 0 0
BITMAP
000100
001F40
00BB80
0392D0
000000
07F400
067C00
007C00
00B800
00B400
00F400
01F000
02E000
03D000
07C000
0B4000
1F0000
2D0000
B80000
E00000
ENDCHAR
STARTCHAR Idieresis
ENCODING 207
SWIDTH 327 0
DWIDTH 7 0
BBX 10 19 0 0
BITMAP
02D1E0
07E2F0
0281D0
000000
07F400
067C00
007C00
00B800
00B400
00F400
01F000
02E000
03D000
07C000
0B4000
1F0000
2D0000
B80000
E00000
ENDCHAR
STARTCHAR Eth
ENCODING 208
SWIDTH 630 0
DWIDTH 13 0
BBX 13 15 0 0
BITMAP
06BFA000
0FD46D00
05000F40
00B80780
01F40780
02E00780
3FFF0B80
6FE90F40
0F401F00
1F003D00
2E00B800
3D02E000
3C0B8000
3D7E0000
1FE00000
ENDCHAR
STARTCHAR Ntilde
ENCODING 209
SWIDTH 708 0
DWIDTH 14 0
BBX 16 19 0 0
BITMAP
00001B42
00007FC6
0000A1F8
00000000
000B4078
002F407D
007F403D
00EB403D
02CF403C
038F4078
0B0B40B0
0E0B81E0
1D0B82C0
2C07C340
3803DB00
7803ED00
7401FC00
B400F800
70007400
ENDCHAR
STARTCHAR Ograve
ENCODING 210
SWIDTH 655 0
DWIDTH 13 0
BBX 13 20 1 0
BITMAP
00004000
0002E000
0001F000
00006800
00000000
000BF800
007D5E00
01F40B40
07D00B40
0B800B40
1F000F40
3E001F00
7C002E00
78003D00
B8007C00
B400F400
B402E000
B40B8000
3D6E0000
0BE40000
ENDCHAR
STARTCHAR Oacute
ENCODING 211
SWIDTH 655 0
DWIDTH 13 0
BBX 13 20 1 0
BITMAP
00000200
00000780
00000F40
00002900
00000000
000BF800
007D5E00
01F40B40
07D00B40
0B800B40
1F000F40
3E001F00
7C002E00
78003D00
B8007C00
B400F400
B402E000
B40B8000
3D6E0000
0BE40000
ENDCHAR
STARTCHAR Ocircumflex
ENCODING 212
SWIDTH 655 0
DWIDTH 13 0
BBX 13 20 1 0
BITMAP
00000400
00002E00
0001FF40
00078780
00000000
000BF800
007D5E00
01F40B40
07D00B40
0B800B40
1F000F40
3E001F00
7C002E00
78003D00
B8007C00
B400F400
B402E000
B40B8000
3D6E0000
0BE40000
ENDCHAR
STARTCHAR Otilde
ENCODING 213
SWIDTH 655 0
DWIDTH 13 0
BBX 14 19 1 0
BITMAP
0002F460
000BFF80
00000000
00000000
000BF800
007D5E00
01F40B40
07D00B40
0B800B40
1F000F40
3E001F00
7C002E00
78003D00
B8007C00
B400F400
B402E000
B40B8000
3D6E0000
0BE40000
ENDCHAR
STARTCHAR Odieresis
ENCODING 214
SWIDTH 655 0
DWIDTH 13 0
BBX 14 19 1 0
BITMAP
000782D0
000BC7E0
00074280
00000000
000BF800
007D5E00
01F40B40
07D00B40
0B800B40
1F000F40
3E001F00
7C002E00
78003D00
B8007C00
B400F400
B402E000
B40B8000
3D6E0000
0BE40000
ENDCHAR
STARTCHAR multiply
ENCODING 215
SWIDTH 573 0
DWIDTH 11 0
BBX 9 8 2 3
BITMAP
A00740
781E00
1E7800
07E000
07E000
1E7400
782D00
E00B00
ENDCHAR
STARTCHAR Oslash
ENCODING 216
SWIDTH 655 0
DWIDTH 13 0
BBX 13 19 2 -2
BITMAP
00000B40
00001E00
001BFC00
00BDBD00
02E0EF00
0BC2CF00
1F474F00
2E0A1F00
7D1C2E00
B8343D00
F4A07C00
F0C0B800
F281F000
F703D000
FD0B4000
7D7D0000
7FE00000
E0000000
40000000
ENDCHAR
STARTCHAR Ugrave
ENCODING 217
SWIDTH 624 0
DWIDTH 12 0
BBX 14 20 0 0
BITMAP
00004000
0002D000
0002F000
00006800
00000000
00F400E0
00B802E0
00B403D0
00F00B80
02E00F40
03D02F00
07C03E00
0F40BD00
1F01FC00
2E02F800
3D07B400
7C0DB400
B824F000
B990F500
2E407E00
ENDCHAR
STARTCHAR Uacute
ENCODING 218
SWIDTH 624 0
DWIDTH 12 0
BBX 14 20 0 0
BITMAP
00000200
00000B80
00001F40
00003800
00000000
00F400E0
00B802E0
00B403D0
00F00B80
02E00F40
03D02F00
07C03E00
0F40BD00
1F01FC00
2E02F800
3D07B400
7C0DB400
B824F000
B990F500
2E407E00
ENDCHAR
STARTCHAR Ucircumflex
ENCODING 219
SWIDTH 624 0
DWIDTH 12 0
BBX 14 20 0 0
BITMAP
00000400
00002E00
0001EF00
000B4780
00000000
00F400E0
00B802E0
00B403D0
00F00B80
02E00F40
03D02F00
07C03E00
0F40BD00
1F01FC00
2E02F800
3D07B400
7C0DB400
B824F000
B990F500
2E407E00
ENDCHAR
STARTCHAR Udieresis
ENCODING 220
SWIDTH 624 0
DWIDTH 12 0
BBX 14 19 0 0
BITMAP
000B83D0
000FC7D0
00074280
00000000
00F400E0
00B802E0
00B403D0
00F00B80
02E00F40
03D02F00
07C03E00
0F40BD00
1F01FC00
2E02F800
3D07B400
7C0DB400
B824F000
B990F500
2E407E00
ENDCHAR
STARTCHAR Yacute
ENCODING 221
SWIDTH 580 0
DWIDTH 12 0
BBX 14 25 0 -5
BITMAP
00000600
00000B40
00001F00
00007800
00000000
01F400E0
00B802E0
00B403C0
01F00B80
02E00F40
03D02F00
07C07E00
0F40BC00
1F01F800
2E02F400
3C07B000
780DE000
B826D000
B9938000
2E4B0000
001E0000
00780000
01F00000
07C00000
2E000000
ENDCHAR
STARTCHAR Thorn
ENCODING 222
SWIDTH 527 0
DWIDTH 11 0
BBX 12 15 -1 0
BITMAP
06F800
067D00
003C00
007C00
00BFA0
00B97D
00F41E
01F01E
02E03D
03C1F8
0BFFD0
0F5500
2E0000
7C0000
A00000
ENDCHAR
STARTCHAR germandbls
ENCODING 223
SWIDTH 520 0
DWIDTH 10 0
BBX 12 19 -1 -3
BITMAP
0006E4
001F5D
003C0E
00781E
00F42D
01F078
02E1E0
02D3C0
03C740
078B80
0B87C0
0F42E0
0F00F4
1E3478
2D7DB4
3C2F90
780000
F40000
500000
ENDCHAR
STARTCHAR agrave
ENCODING 224
SWIDTH 541 0
DWIDTH 11 0
BBX 11 16 0 -1
BITMAP
000A00
001F00
000F00
000740
000000
006E78
02E6F8
0B81F0
1F02E0
2D03C0
3C0B80
7C0F40
7C2F40
3DABA0
1F87E0
000140
ENDCHAR
STARTCHAR aacute
ENCODING 225
SWIDTH 541 0
DWIDTH 11 0
BBX 11 17 0 -1
BITMAP
000090
0001E0
0002D0
000B80
001900
000000
006E78
02E6F8
0B81F0
1F02E0
2D03C0
3C0B80
7C0F40
7C2F40
3DABA0
1F87E0
000140
ENDCHAR
STARTCHAR acircumflex
ENCODING 226
SWIDTH 541 0
DWIDTH 11 0
BBX 11 16 0 -1
BITMAP
0001E0
0007F0
002DB4
00E478
000000
006E78
02E6F8
0B81F0
1F02E0
2D03C0
3C0B80
7C0F40
7C2F40
3DABA0
1F87E0
000140
ENDCHAR
STARTCHAR atilde
ENCODING 227
SWIDTH 541 0
DWIDTH 11 0
BBX 12 16 0 -1
BITMAP
002E05
00BF89
00C2F4
000000
000000
006E78
02E6F8
0B81F0
1F02E0
2D03C0
3C0B80
7C0F40
7C2F40
3DABA0
1F87E0
000140
ENDCHAR
STARTCHAR adieresis
ENCODING 228
SWIDTH 541 0
DWIDTH 11 0
BBX 12 16 0 -1
BITMAP
00B87D
00FC7D
007428
000000
000000
006E78
02E6F8
0B81F0
1F02E0
2D03C0
3C0B80
7C0F40
7C2F40
3DABA0
1F87E0
000140
ENDCHAR
STARTCHAR aring
ENCODING 229
SWIDTH 541 0
DWIDTH 11 0
BBX 11 16 0 -1
BITMAP
000BE0
002D74
0038B4
002FD0
000000
006E78
02E6F8
0B81F0
1F02E0
2D03C0
3C0B80
7C0F40
7C2F40
3DABA0
1F87E0
000140
ENDCHAR
STARTCHAR ae
ENCODING 230
SWIDTH 769 0
DWIDTH 15 0
BBX 15 10 0 0
BITMAP
006E7AF4
02E6FD7C
0B81F47C
1F02E0B8
2D03D7E0
3C0BFE40
7C0FC000
7C2BC020
3DA2E5E0
1F40BE40
ENDCHAR
STARTCHAR ccedilla
ENCODING 231
SWIDTH 465 0
DWIDTH 9 0
BBX 9 15 0 -5
BITMAP
006F40
02E6C0
0B83C0
1F07C0
3D0B40
7C0000
7C0000
7C0100
3D5D00
1FE400
034000
028000
078000
1F4000
050000
ENDCHAR
STARTCHAR egrave
ENCODING 232
SWIDTH 471 0
DWIDTH 9 0
BBX 9 15 0 0
BITMAP
002C00
003C00
002C00
000D00
000000
006F40
02E7C0
0B83C0
1F07C0
2E1F40
3EBD00
7E5000
3C0100
2E5B00
0BF800
ENDCHAR
STARTCHAR eacute
ENCODING 233
SWIDTH 471 0
DWIDTH 9 0
BBX 9 16 0 0
BITMAP
000240
0007C0
000B80
001E00
007400
000000
006F40
02E7C0
0B83C0
1F07C0
2E1F40
3EBD00
7E5000
3C0100
2E5B00
0BF800
ENDCHAR
STARTCHAR ecircumflex
ENCODING 234
SWIDTH 471 0
DWIDTH 9 0
BBX 10 15 0 0
BITMAP
0003C0
001FD0
00B9D0
02D0A0
000000
006F40
02E7C0
0B83C0
1F07C0
2E1F40
3EBD00
7E5000
3C0100
2E5B00
0BF800
ENDCHAR
STARTCHAR edieresis
ENCODING 235
SWIDTH 471 0
DWIDTH 9 0
BBX 11 15 0 0
BITMAP
01E0B4
02F1F8
01D0A0
000000
000000
006F40
02D7C0
0B83C0
1F0B80
2D6E00
3FE400
7C0000
3C0200
2E5E00
0BF800
ENDCHAR
STARTCHAR igrave
ENCODING 236
SWIDTH 286 0
DWIDTH 6 0
BBX 6 15 0 0
BITMAP
02C0
03C0
02C0
01D0
0000
0BC0
07C0
0780
0B40
1E00
2D00
3C00
7800
7F00
2E00
ENDCHAR
STARTCHAR iacute
ENCODING 237
SWIDTH 286 0
DWIDTH 6 0
BBX 7 16 0 0
BITMAP
0024
007C
00B8
01E0
0740
0000
0BC0
07C0
0780
0B40
1E00
2D00
3C00
7800
7F00
2E00
ENDCHAR
STARTCHAR icircumflex
ENCODING 238
SWIDTH 286 0
DWIDTH 6 0
BBX 8 15 0 0
BITMAP
003C
01FC
0B9D
290E
0000
0BC0
07C0
0780
0B40
1E00
2D00
3C00
7800
7F00
2E00
ENDCHAR
STARTCHAR idieresis
ENCODING 239
SWIDTH 286 0
DWIDTH 6 0
BBX 9 15 0 0
BITMAP
1E0B40
2F1F80
1D0A00
000000
000000
0BC000
07C000
078000
0B4000
1E0000
2D0000
3C0000
780000
7F0000
2E0000
ENDCHAR
STARTCHAR eth
ENCODING 240
SWIDTH 524 0
DWIDTH 11 0
BBX 13 17 0 0
BITMAP
00004000
0000D000
0000B500
0001BF40
000BB400
00047800
00007800
006EB400
02E6F400
0B81F000
1F01E000
2E03D000
3D07C000
7C0B4000
7C1E0000
3D780000
1B900000
ENDCHAR
STARTCHAR ntilde
ENCODING 241
SWIDTH 561 0
DWIDTH 11 0
BBX 12 15 0 0
BITMAP
002E05
00BF89
00C2F4
000000
000000
0B82E0
07CBF4
07A8B4
0BA1F0
0FC2E0
1F43D0
3D0780
7C0B40
B40B50
B007E0
ENDCHAR
STARTCHAR ograve
ENCODING 242
SWIDTH 514 0
DWIDTH 10 0
BBX 10 15 0 0
BITMAP
000B00
000F00
000B00
000340
000000
007F40
02E7D0
0B82D0
1F02E0
2E03D0
3D07C0
7C0B80
7C1F00
3D7D00
1BE000
ENDCHAR
STARTCHAR oacute
ENCODING 243
SWIDTH 514 0
DWIDTH 10 0
BBX 10 16 0 0
BITMAP
000090
0001F0
0002E0
000780
001D00
000000
007F40
02E7D0
0B82D0
1F02E0
2E03D0
3D07C0
7C0B80
7C1F00
3D7D00
1BE000
ENDCHAR
STARTCHAR ocircumflex
ENCODING 244
SWIDTH 514 0
DWIDTH 10 0
BBX 11 15 0 0
BITMAP
0000F0
0007F0
002E74
00A438
000000
007F40
02E7D0
0B82D0
1F02E0
2E03D0
3D07C0
7C0B80
7C1F00
3D7D00
1BE000
ENDCHAR
STARTCHAR otilde
ENCODING 245
SWIDTH 514 0
DWIDTH 10 0
BBX 12 15 0 0
BITMAP
001F02
007F89
0092F4
000000
000000
007F40
02E7D0
0B82D0
1F02E0
2E03D0
3D07C0
7C0B80
7C1F00
3D7D00
1BE000
ENDCHAR
STARTCHAR odieresis
ENCODING 246
SWIDTH 514 0
DWIDTH 10 0
BBX 12 15 0 0
BITMAP
00782D
00BC7E
007428
000000
000000
007F40
02E7D0
0B82D0
1F02E0
2E03D0
3D07C0
7C0B80
7C1F00
3D7D00
1BE000
ENDCHAR
STARTCHAR divide
ENCODING 247
SWIDTH 617 0
DWIDTH 12 0
BBX 11 11 1 2
BITMAP
001000
00BC00
00B800
001000
000000
6FFFF4
155550
001000
00F800
00F800
001000
ENDCHAR
STARTCHAR oslash
ENCODING 248
SWIDTH 514 0
DWIDTH 10 0
BBX 11 14 0 -2
BITMAP
000010
0000F4
007FD0
02E7C0
0B8AD0
1F1AE0
2E22D0
3C97C0
7D8B80
3A5F00
3E7D00
1FE000
380000
100000
ENDCHAR
STARTCHAR ugrave
ENCODING 249
SWIDTH 553 0
DWIDTH 11 0
BBX 11 15 0 0
BITMAP
000740
000B40
000740
000280
000000
0B8038
07C0B8
0781F0
0B42E0
1F07D0
2E0F80
3C2B40
78AB40
7F8BE0
3E07D0
ENDCHAR
STARTCHAR uacute
ENCODING 250
SWIDTH 553 0
DWIDTH 11 0
BBX 11 16 0 0
BITMAP
000060
0000B4
0001F0
0003D0
000A00
000000
0B8038
07C0B8
07C0F4
0B82E0
1F07D0
2E0BC0
3D2B80
7C6740
798B50
3E07D0
ENDCHAR
STARTCHAR ucircumflex
ENCODING 251
SWIDTH 553 0
DWIDTH 11 0
BBX 12 15 0 0
BITMAP
0000B4
0002F8
001F7C
00782D
000000
0B8038
07C0B8
07C0F4
0B82E0
1F07D0
2E0BC0
3D2B80
7C6740
798B50
3E07D0
ENDCHAR
STARTCHAR udieresis
ENCODING 252
SWIDTH 553 0
DWIDTH 11 0
BBX 12 15 0 0
BITMAP
003D2E
007D3F
00281D
000000
000000
0B8038
07C0B8
07C0F4
0B82E0
1F07D0
2E0BC0
3D2B80
7C6740
798B50
3E07D0
ENDCHAR
STARTCHAR yacute
ENCODING 253
SWIDTH 549 0
DWIDTH 11 0
BBX 11 22 0 -6
BITMAP
000090
0001F0
0002E0
000B80
001D00
000000
078028
07C078
07C0F4
0B82F0
0F43E0
2F0BD0
3D1FC0
7C7780
79DB40
2E0F00
001E00
003C00
00B400
01E000
1B8000
190000
ENDCHAR
STARTCHAR thorn
ENCODING 254
SWIDTH 552 0
DWIDTH 11 0
BBX 13 22 -2 -5
BITMAP
00010000
00078000
00078000
000B4000
000F0000
001E0000
002D0000
003DBD00
007B9F00
00BD0F40
00F80F40
01F01F00
02E02E00
02D03D00
03D0B800
07E6E000
0B6E4000
1F000000
2E000000
3C000000
78000000
B4000000
ENDCHAR
STARTCHAR ydieresis
ENCODING 255
SWIDTH 549 0
DWIDTH 11 0
BBX 12 21 0 -6
BITMAP
00B83D
00FC7D
007428
000000
000000
078028
07C078
07C0F4
0B82F0
0F43E0
2F0BD0
3D1FC0
7C7780
79DB40
2E0F00
001E00
003C00
00B400
01E000
1B8000
190000
ENDCHAR
STARTCHAR Amacron
ENCODING 256
SWIDTH 615 0
DWIDTH 12 0
BBX 17 18 -2 0
BITMAP
00000BFF40
0000000000
0000000000
000001BC00
00000BB800
00002CB400
0000B0F000
0002D1E000
000743D000
000E07C000
002FFFF400
01FEAFA000
00B00F0000
01E01E0000
02C02E0000
0B402D0000
2E002E4000
78001F8000
ENDCHAR
STARTCHAR amacron
ENCODING 257
SWIDTH 543 0
DWIDTH 11 0
BBX 11 14 0 -1
BITMAP
00BFF8
000000
000000
006E78
02E6F8
0B81F0
1F02E0
2D03D0
3C0B80
7C0F40
7C2F40
3DABA0
1F87E0
000140
ENDCHAR
STARTCHAR Abreve
ENCODING 258
SWIDTH 615 0
DWIDTH 12 0
BBX 17 20 -2 0
BITMAP
0000014040
0000034180
0000078740
000002F900
0000000000
000001BC00
00000BB800
00002CB400
0000B0F000
0002D1E000
000743D000
000E07C000
002FFFF400
01FEAFA000
00B00F0000
01E01E0000
03C02E0000
0B402D0000
2E002F9000
78001F8000
ENDCHAR
STARTCHAR abreve
ENCODING 259
SWIDTH 543 0
DWIDTH 11 0
BBX 11 16 0 -1
BITMAP
002808
003C28
001FE0
000000
000000
006E78
02E6F8
0B81F0
1F02E0
2D03D0
3C0B80
7C0F40
7C2F40
3DABA0
1F87E0
000140
ENDCHAR
STARTCHAR Aogonek
ENCODING 260
SWIDTH 615 0
DWIDTH 12 0
BBX 15 19 -2 -4
BITMAP
000001BC
00000BB8
00002CB4
0000B0F0
0002D1E0
000743D0
000E07C0
002FFFF4
01FEAFA0
00B00F00
01E01E00
03C02E00
0B402D00
2E002F90
78001F80
00001D00
00007400
0000F000
0000BD00
ENDCHAR
STARTCHAR aogonek
ENCODING 261
SWIDTH 541 0
DWIDTH 11 0
BBX 11 14 0 -4
BITMAP
006E78
02E6F8
0B81F0
1F02E0
2D03C0
3C0B80
7C0F40
7C2F40
3DABA0
1F87E0
000740
001E00
002D00
002F40
ENDCHAR
STARTCHAR Cacute
ENCODING 262
SWIDTH 533 0
DWIDTH 11 0
BBX 13 20 1 0
BITMAP
00000200
00000B40
00001F00
00003800
00000000
000BE000
007D6800
02E02C00
07C03C00
0F40B800
2E03F400
3D02D000
BC000000
B8000000
F4000000
F4000000
F4000000
B8020000
7D5F0000
1BE80000
ENDCHAR
STARTCHAR cacute
ENCODING 263
SWIDTH 468 0
DWIDTH 9 0
BBX 11 16 0 0
BITMAP
000024
000078
0000F4
0002E0
000640
000000
006F40
02E6C0
0B82C0
1F07C0
3E0B40
3C0000
7C0000
7C0100
2D5D00
0BE400
ENDCHAR
STARTCHAR Ccircumflex
ENCODING 264
SWIDTH 533 0
DWIDTH 11 0
BBX 13 20 1 0
BITMAP
00000400
00002D00
0001EF00
000B4740
00000000
000BE000
007D6800
02E02C00
07C03C00
0F40B800
2E03F400
3D02D000
BC000000
B8000000
F4000000
F4000000
F4000000
B8020000
7D5F0000
1BE80000
ENDCHAR
STARTCHAR ccircumflex
ENCODING 265
SWIDTH 468 0
DWIDTH 9 0
BBX 11 15 0 0
BITMAP
0001E0
0007F0
002DB4
00E478
000000
006F40
02E6C0
0B82C0
1F07C0
3E0B40
3C0000
7C0000
7C0100
2D5D00
0BE400
ENDCHAR
STARTCHAR Cdotaccent
ENCODING 266
SWIDTH 533 0
DWIDTH 11 0
BBX 11 19 1 0
BITMAP
0001F4
0001F4
0000A0
000000
000BE0
007D68
02E02C
07C03C
0F40B8
2E03F4
3D02D0
BC0000
B80000
F40000
F40000
F40000
B80200
7D5F00
1BE800
ENDCHAR
STARTCHAR cdotaccent
ENCODING 267
SWIDTH 468 0
DWIDTH 9 0
BBX 9 15 0 0
BITMAP
000780
000BC0
000780
000000
000000
006F40
02E6C0
0B82C0
1F07C0
3E0B40
3C0000
7C0000
7C0100
2D5D00
0BE400
ENDCHAR
STARTCHAR Ccaron
ENCODING 268
SWIDTH 533 0
DWIDTH 11 0
BBX 13 19 1 0
BITMAP
00078080
0002EB80
0000F900
00000000
000BE000
007D6800
02E02C00
07C03C00
0F40B800
2E03F400
3D02D000
BC000000
B8000000
F4000000
F4000000
F4000000
B8020000
7D5F0000
1BE80000
ENDCHAR
STARTCHAR ccaron
ENCODING 269
SWIDTH 468 0
DWIDTH 9 0
BBX 12 15 0 0
BITMAP
001806
001E2E
000FF4
000A40
000000
006F40
02E6C0
0B82C0
1F07C0
3E0B40
3C0000
7C0000
7C0100
2D5D00
0BE400
ENDCHAR
STARTCHAR Dcaron
ENCODING 270
SWIDTH 630 0
DWIDTH 13 0
BBX 13 19 1 0
BITMAP
001E0240
000BAE00
0003E400
00000000
1AFF9000
3F51B800
14402D00
02E01E00
07D01F00
0B801F00
0F401E00
2E002E00
3D007C00
7C00F800
B802F000
B40BC000
F02F0000
F5F80000
6F900000
ENDCHAR
STARTCHAR dcaron
ENCODING 271
SWIDTH 557 0
DWIDTH 11 0
BBX 16 17 1 0
BITMAP
00000514
00001F3D
00002D2D
00003C28
00007874
0000B440
0000F000
01BAE000
0797D000
1E03C000
3C07C000
B80B8000
F41F4000
F02F0000
F07E0000
F5DE5000
7E4B9000
ENDCHAR
STARTCHAR Dcroat
ENCODING 272
SWIDTH 630 0
DWIDTH 13 0
BBX 13 15 0 0
BITMAP
06BFA000
0FD46D00
05000F40
00B80780
01F40780
02E00780
3FFF0B80
6FE90F40
0F401F00
1F003D00
2E00B800
3D02E000
3C0B8000
3D7E0000
1FE00000
ENDCHAR
STARTCHAR dcroat
ENCODING 273
SWIDTH 557 0
DWIDTH 11 0
BBX 13 17 1 0
BITMAP
00000500
00001F00
00002E00
001FFF40
0005B800
0000B400
0000F000
01BAE000
0797D000
1E03C000
3C078000
B80B8000
F41F4000
F02F0000
F07E0000
F5DE5000
7E4B9000
ENDCHAR
STARTCHAR Emacron
ENCODING 274
SWIDTH 509 0
DWIDTH 10 0
BBX 12 18 1 0
BITMAP
007FFD
000000
000000
002FE0
01F978
07D038
0F40B4
1E07F0
2D0780
2D0000
0F6400
0BF400
2F4000
BC0000
F40100
F00E00
B57D00
2FE000
ENDCHAR
STARTCHAR emacron
ENCODING 275
SWIDTH 471 0
DWIDTH 9 0
BBX 10 13 0 0
BITMAP
01FFF0
000000
000000
006F40
02E7C0
0B83C0
1F07C0
2E1F40
3EBD00
7E5000
3C0100
2E5B00
0BF800
ENDCHAR
STARTCHAR Ebreve
ENCODING 276
SWIDTH 509 0
DWIDTH 10 0
BBX 12 20 1 0
BITMAP
000401
001D09
001E18
000BE0
000000
002FE0
01F978
07D038
0F40B4
1E07F0
2D0780
2D0000
0F6400
0BF400
2F4000
BC0000
F40100
F00E00
B57D00
2FE000
ENDCHAR
STARTCHAR ebreve
ENCODING 277
SWIDTH 471 0
DWIDTH 9 0
BBX 11 15 0 0
BITMAP
007024
00B4A0
007F80
000000
000000
006F40
02E7C0
0B83C0
1F07C0
2E1F40
3EBD00
7E5000
3C0100
2E5B00
0BF800
ENDCHAR
STARTCHAR Edotaccent
ENCODING 278
SWIDTH 509 0
DWIDTH 10 0
BBX 11 19 1 0
BITMAP
000B80
000F80
000A40
000000
002FE0
01F978
07D038
0F40B4
1E07F0
2D0780
2D0000
0F6400
0BF400
2F4000
BC0000
F40100
F00E00
B57D00
2FE000
ENDCHAR
STARTCHAR edotaccent
ENCODING 279
SWIDTH 471 0
DWIDTH 9 0
BBX 9 15 0 0
BITMAP
001F40
001F40
000A00
000000
000000
006F40
02E7C0
0B83C0
1F07C0
2E1F40
3EBD00
7E5000
3C0100
2E5B00
0BF800
ENDCHAR
STARTCHAR Eogonek
ENCODING 280
SWIDTH 509 0
DWIDTH 10 0
BBX 11 19 1 -4
BITMAP
002FE0
01F978
07D038
0F40B4
1E07F0
2D0780
2D0000
0F6400
0BF400
2F4000
BC0000
F40100
F00E00
B57D00
2FE000
074000
1D0000
2D0000
2F4000
ENDCHAR
STARTCHAR eogonek
ENCODING 281
SWIDTH 471 0
DWIDTH 9 0
BBX 8 14 1 -4
BITMAP
01BD
0B9F
2E0F
7C1F
B87D
FAF4
F940
F004
B96C
2FE0
0780
0E00
2D00
1F80
ENDCHAR
STARTCHAR Ecaron
ENCODING 282
SWIDTH 509 0
DWIDTH 10 0
BBX 12 19 1 0
BITMAP
002D0A
001F7D
000B90
000100
002FE0
01F978
07D038
0F40B4
1E07F0
2D0780
2D0000
0F6400
0BF400
2F4000
BC0000
F40100
F00E00
B57D00
2FE000
ENDCHAR
STARTCHAR ecaron
ENCODING 283
SWIDTH 471 0
DWIDTH 9 0
BBX 11 15 0 0
BITMAP
006408
003C7C
002EE0
001E00
000000
006F40
02E7C0
0B83C0
1F07C0
2E1F40
3EBD00
7E5000
3C0100
2E5B00
0BF800
ENDCHAR
STARTCHAR Gcircumflex
ENCODING 284
SWIDTH 598 0
DWIDTH 12 0
BBX 13 20 1 0
BITMAP
00000400
00003D00
0001EF00
000B4B40
00000000
000BE000
007D6800
01F02C00
07C03C00
0F40BC00
2F02F400
3D02D000
7C000000
B8051400
F41FF800
F40BE000
F4074000
B40B0000
7D6D0000
1BE00000
ENDCHAR
STARTCHAR gcircumflex
ENCODING 285
SWIDTH 526 0
DWIDTH 11 0
BBX 11 21 0 -6
BITMAP
0000E0
0007F0
002EB4
00E438
000000
006E10
02E6F8
0B80F4
1F01F0
2E02E0
3D07D0
7C0BC0
7C2F80
3DBF40
1F8F00
001D00
003C00
00B400
01E000
1B8000
190000
ENDCHAR
STARTCHAR Gbreve
ENCODING 286
SWIDTH 598 0
DWIDTH 12 0
BBX 13 20 1 0
BITMAP
00014040
000380C0
0003C740
0001FD00
00000000
000BE000
007D6800
01F02C00
07C03C00
0F40BC00
2F02F400
3D02D000
7C000000
B8051400
F41FF800
F40BE000
F4074000
B40B0000
7D6D0000
1BE00000
ENDCHAR
STARTCHAR gbreve
ENCODING 287
SWIDTH 526 0
DWIDTH 11 0
BBX 11 21 0 -6
BITMAP
002808
002D28
001FE0
000000
000000
006E10
02E6F8
0B80F4
1F01F0
2E02E0
3D07D0
7C0BC0
7C2F80
3DBF40
1F8F00
001D00
003C00
00B400
01E000
1B8000
190000
ENDCHAR
STARTCHAR Gdotaccent
ENCODING 288
SWIDTH 598 0
DWIDTH 12 0
BBX 11 19 1 0
BITMAP
0001F4
0002F4
0000A0
000000
000BE0
007D68
01F02C
07C03C
0F40BC
2F02F4
3D02D0
7C0000
B80514
F41FF8
F40BE0
F40740
B40B00
7D6D00
1BE000
ENDCHAR
STARTCHAR gdotaccent
ENCODING 289
SWIDTH 526 0
DWIDTH 11 0
BBX 11 21 0 -6
BITMAP
0007C0
000BD0
000680
000000
000000
006E10
02E6F8
0B80F4
1F01F0
2E02E0
3D07D0
7C0BC0
7C2F80
3DBF40
1F8F00
001D00
003C00
00B400
01E000
1B8000
190000
ENDCHAR
STARTCHAR Gcommaaccent
ENCODING 290
SWIDTH 598 0
DWIDTH 12 0
BBX 11 20 1 -5
BITMAP
000BE0
007D68
01F02C
07C03C
0F40BC
2F02F4
3D02D0
7C0000
B80514
F41FF8
F40BE0
F40740
B40B00
7D6D00
1BE000
000000
2E0000
1E0000
2C0000
640000
ENDCHAR
STARTCHAR gcommaaccent
ENCODING 291
SWIDTH 526 0
DWIDTH 11 0
BBX 11 21 0 -6
BITMAP
000090
000380
0007C0
000240
000000
006E10
02E6F8
0B80F4
1F01F0
2E02E0
3D07D0
7C0BC0
7C2F80
3DBF40
1F8F00
001D00
003C00
00B400
01E000
1B8000
190000
ENDCHAR
STARTCHAR Hcircumflex
ENCODING 292
SWIDTH 668 0
DWIDTH 13 0
BBX 15 20 -1 0
BITMAP
00000100
00001F40
00007B80
0002D2D0
00000000
02FD0028
02AE007C
002E0078
003D00B4
003C00F0
007801E0
00BEFFF4
03F55BE0
02E00B80
02D00F40
07801F00
0B402E00
1E002D00
3C003D40
B4001F40
ENDCHAR
STARTCHAR hcircumflex
ENCODING 293
SWIDTH 555 0
DWIDTH 11 0
BBX 11 19 0 0
BITMAP
000F00
007F00
02E740
0A4380
007000
00B400
00F400
01F000
01E000
02D2E0
03CBF4
07A8F4
0BA1F0
0FC2E0
2F47C0
3D0B80
7C0F40
F40F50
A007D0
ENDCHAR
STARTCHAR Hbar
ENCODING 294
SWIDTH 668 0
DWIDTH 13 0
BBX 17 15 -1 0
BITMAP
02FD003800
02AE007C00
002E007800
06FFFFFF40
017C01F000
00B801E000
01FEFFF400
03F557D000
02E00B4000
03D00F0000
07801E0000
0B402E0000
1E002D0000
7C003D4000
B4001F4000
ENDCHAR
STARTCHAR hbar
ENCODING 295
SWIDTH 555 0
DWIDTH 11 0
BBX 11 17 0 0
BITMAP
001000
007800
007800
07FFC0
01F400
01F000
01E000
02D2E0
03CBF4
07A8F4
0BA1F0
0F82E0
1F47C0
3D0B80
7C0F40
B40F50
A007D0
ENDCHAR
STARTCHAR Itilde
ENCODING 296
SWIDTH 327 0
DWIDTH 7 0
BBX 10 19 0 0
BITMAP
00B820
03FD60
061F80
000000
07F400
067C00
007C00
00B800
00B400
00F400
01F000
02E000
03D000
07C000
0B4000
1F0000
2D0000
B80000
E00000
ENDCHAR
STARTCHAR itilde
ENCODING 297
SWIDTH 286 0
DWIDTH 6 0
BBX 9 15 0 0
BITMAP
07C080
1FE240
24BD00
000000
000000
0BC000
07C000
078000
0B4000
1E0000
2D0000
3C0000
780000
7F0000
2E0000
ENDCHAR
STARTCHAR Imacron
ENCODING 298
SWIDTH 327 0
DWIDTH 7 0
BBX 10 18 0 0
BITMAP
02FFD0
000000
000000
07F400
067C00
007C00
00B800
00B400
00F400
01F000
02E000
03D000
07C000
0B4000
1F0000
2D0000
B80000
E00000
ENDCHAR
STARTCHAR imacron
ENCODING 299
SWIDTH 286 0
DWIDTH 6 0
BBX 8 13 0 0
BITMAP
2FFE
0000
0000
0BC0
07C0
0780
0B40
1E00
2D00
3C00
7800
7F00
2E00
ENDCHAR
STARTCHAR Ibreve
ENCODING 300
SWIDTH 327 0
DWIDTH 7 0
BBX 10 20 0 0
BITMAP
004010
01D060
01E1D0
00BE40
000000
07F400
067C00
007C00
00B800
00B400
00F400
01F000
02E000
03D000
07C000
0B4000
1F0000
2D0000
B80000
E00000
ENDCHAR
STARTCHAR ibreve
ENCODING 301
SWIDTH 286 0
DWIDTH 6 0
BBX 9 15 0 0
BITMAP
060240
0B4A00
07F800
000000
000000
0BC000
07C000
078000
0B4000
1E0000
2D0000
3C0000
780000
7F0000
2E0000
ENDCHAR
STARTCHAR Iogonek
ENCODING 302
SWIDTH 327 0
DWIDTH 7 0
BBX 10 19 -3 -4
BITMAP
001FD0
0019F0
0001F0
0002E0
0002D0
0003D0
0007C0
000B80
000F40
001F00
002D00
007C00
00F400
02E000
078000
1D0000
780000
B40000
BD0000
ENDCHAR
STARTCHAR iogonek
ENCODING 303
SWIDTH 297 0
DWIDTH 6 0
BBX 8 19 -1 -4
BITMAP
002D
007E
0028
0000
0000
01F0
01F0
01F0
02D0
03C0
0780
0B00
0F00
1F90
0B80
0A00
3C00
7800
7E00
ENDCHAR
STARTCHAR Idotaccent
ENCODING 304
SWIDTH 327 0
DWIDTH 7 0
BBX 7 19 0 0
BITMAP
0078
00BC
0074
0000
07F4
067C
007C
00B8
00B4
00F4
01F0
02E0
03D0
07C0
0B40
1F00
2D00
B800
E000
ENDCHAR
STARTCHAR dotlessi
ENCODING 305
SWIDTH 286 0
DWIDTH 6 0
BBX 5 10 0 0
BITMAP
0BC0
07C0
0780
0B40
1E00
2D00
3C00
7800
7F00
2E00
ENDCHAR
STARTCHAR IJ
ENCODING 306
SWIDTH 720 0
DWIDTH 14 0
BBX 15 20 0 -5
BITMAP
07F41BE4
067CBD7C
007DF07C
00B840B8
00B400F8
00F401F4
01F002F0
02E003E0
03D007D0
07C00BC0
0B400F40
1F001F00
2D003E00
B8007C00
E000F400
0002E000
0007C000
001F4000
007D0000
02E00000
ENDCHAR
STARTCHAR ij
ENCODING 307
SWIDTH 567 0
DWIDTH 11 0
BBX 12 20 0 -5
BITMAP
01F42D
02F47E
00A028
000000
000000
0BC1F4
07C0F8
0780F4
0B40F4
1E01F0
2D01E0
3C02D0
7803C0
7F0780
2E0F40
001E00
003C00
00B400
02D000
0B4000
ENDCHAR
STARTCHAR Jcircumflex
ENCODING 308
SWIDTH 393 0
DWIDTH 8 0
BBX 15 25 -4 -5
BITMAP
00000040
000007D0
00002EE0
0000A4B4
00000000
0002FE00
001F9F40
002D0F40
00000F40
00001F00
00002E00
00003D00
00007C00
0000B800
0000F400
0002F000
0003D000
0007C000
000F4000
002F0000
007D0000
00F40000
02E00000
1B800000
79000000
ENDCHAR
STARTCHAR jcircumflex
ENCODING 309
SWIDTH 282 0
DWIDTH 6 0
BBX 12 21 -4 -5
BITMAP
000024
0000F8
0007BC
002E2D
001004
000000
000B80
000BC0
000B80
000B80
000F40
001F00
001E00
002D00
007C00
00B400
00F000
02D000
078000
1E0000
780000
ENDCHAR
STARTCHAR Kcommaaccent
ENCODING 310
SWIDTH 616 0
DWIDTH 12 0
BBX 14 20 -1 -5
BITMAP
06F801D0
067D01F0
003D01F0
007C03E0
007C07C0
00B81F00
00F47800
01F2D000
02FF4000
03EF4000
07C7C000
0F42E000
1F01F400
7D00BD00
B4001F80
00000000
01F00000
00F00000
00E00000
02800000
ENDCHAR
STARTCHAR kcommaaccent
ENCODING 311
SWIDTH 497 0
DWIDTH 10 0
BBX 10 22 0 -5
BITMAP
001000
007800
00B800
00B400
00F000
01F000
01E000
02D2E0
03C1F0
0782E0
0B1B80
0FB900
1FE000
3DF000
78B800
B47F90
A01F80
000000
0F4000
0B4000
0E0000
280000
ENDCHAR
STARTCHAR kgreenlandic
ENCODING 312
SWIDTH 497 0
DWIDTH 10 0
BBX 10 10 0 0
BITMAP
0B81E0
07C1F0
0782F0
0B4BD0
0F7E00
1FE400
3EF000
7DB400
B83D50
B01B80
ENDCHAR
STARTCHAR Lacute
ENCODING 313
SWIDTH 517 0
DWIDTH 10 0
BBX 13 20 -1 0
BITMAP
00000140
000003C0
00000B80
00001D00
00000000
0001B900
00079B00
000F0740
002E0B40
007C1F00
00B87D00
00F5F800
01F05000
02D00000
07C00000
0B800000
0F000000
2D154000
7EFFF000
3E95B400
ENDCHAR
STARTCHAR lacute
ENCODING 314
SWIDTH 279 0
DWIDTH 6 0
BBX 9 20 0 0
BITMAP
000140
0003C0
000B40
002900
000000
00A000
00F000
00F000
01E000
02D000
03C000
078000
0B4000
0F0000
1E0000
2D0000
3C0000
780000
794000
2E0000
ENDCHAR
STARTCHAR Lcommaaccent
ENCODING 315
SWIDTH 517 0
DWIDTH 10 0
BBX 13 20 -1 -5
BITMAP
0001B900
00079B00
000F0740
002E0B40
007C1F00
00B87D00
00F5F800
01F05000
02D00000
07C00000
0B800000
0F000000
2D154000
7EFFF000
3E95B400
00000000
0B800000
07800000
0B400000
19000000
ENDCHAR
STARTCHAR lcommaaccent
ENCODING 316
SWIDTH 279 0
DWIDTH 6 0
BBX 7 22 0 -5
BITMAP
0050
00B4
00F4
00F0
01F0
02E0
03D0
03C0
0780
0B40
0F00
1E00
2D00
3C00
7800
7940
2E00
0000
7C00
3C00
7400
9000
ENDCHAR
STARTCHAR Lcaron
ENCODING 317
SWIDTH 517 0
DWIDTH 10 0
BBX 16 19 -1 0
BITMAP
0000000B
0000000F
0000000E
0000001D
0001B934
00079B00
000F0740
002E0B40
007C1F00
00B87D00
00F5F800
01F05000
02D00000
07C00000
0B800000
0F000000
2D154000
7EFFF000
3E95B400
ENDCHAR
STARTCHAR lcaron
ENCODING 318
SWIDTH 467 0
DWIDTH 9 0
BBX 11 17 0 0
BITMAP
005014
00B47C
00F43C
00F074
01F0A0
02E040
03D000
03C000
078000
0B4000
0F0000
1E0000
2D0000
3C0000
780000
794000
2E0000
ENDCHAR
STARTCHAR Ldot
ENCODING 319
SWIDTH 668 0
DWIDTH 13 0
BBX 15 15 -1 0
BITMAP
0001B900
00079B00
000F0740
002E0B40
007C1F00
00B87D00
00F5F800
01F050A4
02D001F8
07C000F4
0B800000
0F000000
2D154000
7EFFF000
3E95B400
ENDCHAR
STARTCHAR ldot
ENCODING 320
SWIDTH 489 0
DWIDTH 10 0
BBX 10 17 0 0
BITMAP
005000
00B400
00F400
00F000
01F000
02E000
03D000
03C000
078000
0B47D0
0F0BE0
1E0780
2D0000
3C0000
780000
794000
2E0000
ENDCHAR
STARTCHAR Lslash
ENCODING 321
SWIDTH 517 0
DWIDTH 10 0
BBX 13 15 -1 0
BITMAP
0001B900
00079B00
000F0740
002E0B40
007C1F00
00B87D00
00F5F800
01F05000
07FE0000
2FD40000
1B400000
0F000000
2D5A9000
7FFFF000
3E95B400
ENDCHAR
STARTCHAR lslash
ENCODING 322
SWIDTH 279 0
DWIDTH 6 0
BBX 9 17 0 0
BITMAP
010000
03D000
02FF80
00F400
00F000
01E000
02D000
03C000
078000
0B4000
0F0000
1E0000
2D0000
3C0000
780000
794000
2E0000
ENDCHAR
STARTCHAR Nacute
ENCODING 323
SWIDTH 708 0
DWIDTH 14 0
BBX 16 20 0 0
BITMAP
00000014
0000003C
000000B8
00000290
00000000
000B4078
002F407D
007F403D
00EB403D
02CF403C
038F4078
0B0B40B0
0E0B81E0
1D0B82C0
2C07C340
3803DB00
7803ED00
7401FC00
B400F800
70007400
ENDCHAR
STARTCHAR nacute
ENCODING 324
SWIDTH 561 0
DWIDTH 11 0
BBX 11 16 0 0
BITMAP
000060
0000B4
0001F0
0003D0
000A00
000000
0B82E0
07CBF4
07A8B4
0BA1F0
0FC2E0
1F43D0
3D0780
7C0B40
B40B50
B007E0
ENDCHAR
STARTCHAR Ncommaaccent
ENCODING 325
SWIDTH 708 0
DWIDTH 14 0
BBX 16 20 0 -5
BITMAP
000B4078
002F407D
007F403D
00EB403D
02CF403C
038F4078
0B0B40B0
0E0B81E0
1D0B82C0
2C07C340
3803DB00
7803ED00
7401FC00
B400F800
70007400
00000000
003C0000
003C0000
00380000
00A00000
ENDCHAR
STARTCHAR ncommaaccent
ENCODING 326
SWIDTH 561 0
DWIDTH 11 0
BBX 11 15 0 -5
BITMAP
0B82E0
07CBF4
07A8B4
0BA1F0
0FC2E0
1F43D0
3D0780
7C0B40
B40B50
B007E0
000000
0B4000
0B4000
0B0000
180000
ENDCHAR
STARTCHAR Ncaron
ENCODING 327
SWIDTH 708 0
DWIDTH 14 0
BBX 16 19 0 0
BITMAP
00002D0A
00001F7D
00000B90
00000100
000B4078
002F407D
007F403D
00EB403D
02CF403C
038F4078
0B0B40B0
0E0B81E0
1D0B82C0
2C07C340
3803DB00
7803ED00
7401FC00
B400F800
70007400
ENDCHAR
STARTCHAR ncaron
ENCODING 328
SWIDTH 561 0
DWIDTH 11 0
BBX 12 15 0 0
BITMAP
001806
001E1E
000FB4
000B40
000000
0B82E0
07CBF4
07A8B4
0BA1F0
0FC2E0
1F43D0
3D0780
7C0B40
B40B50
B007E0
ENDCHAR
STARTCHAR Eng
ENCODING 330
SWIDTH 698 0
DWIDTH 14 0
BBX 16 20 0 -5
BITMAP
000B40B8
003F40BD
00BF003D
01DF003D
02CF007C
074F0078
0B0F40B4
1E0F40F0
2D0B81E0
3C0B82D0
7807C380
7403D740
B002FA00
B000FC00
6000B400
0001E000
00078000
001E0000
00780000
02D00000
ENDCHAR
STARTCHAR eng
ENCODING 331
SWIDTH 561 0
DWIDTH 11 0
BBX 11 15 0 -5
BITMAP
0B82E0
07CBF4
07A8B4
0BA0F0
0FC0F0
1F42D0
3D03C0
7C0780
B40B40
B01E00
003D00
00B800
01E000
07C000
0E0000
ENDCHAR
STARTCHAR Omacron
ENCODING 332
SWIDTH 655 0
DWIDTH 13 0
BBX 13 18 1 0
BITMAP
0007FFC0
00000000
00000000
000BF800
007D5E00
01F40B40
07D00B40
0B800B40
1F000F40
3E001F00
7C002E00
78003D00
B8007C00
B400F400
B402E000
B40B8000
3D6E0000
0BE40000
ENDCHAR
STARTCHAR omacron
ENCODING 333
SWIDTH 514 0
DWIDTH 10 0
BBX 11 13 0 0
BITMAP
00BFFC
000000
000000
007F40
02E7D0
0B82D0
1F02E0
2E03D0
3D07C0
7C0B80
7C1F00
3D7D00
1BE000
ENDCHAR
STARTCHAR Obreve
ENCODING 334
SWIDTH 655 0
DWIDTH 13 0
BBX 14 20 1 0
BITMAP
00004040
0002C090
0002D280
0001FE00
00000000
000BF800
007D5E00
01F40B40
07D00B40
0B800B40
1F000F40
3E001F00
7C002E00
78003D00
B8007C00
B400F400
B402E000
B40B8000
3D6E0000
0BE40000
ENDCHAR
STARTCHAR obreve
ENCODING 335
SWIDTH 514 0
DWIDTH 10 0
BBX 12 15 0 0
BITMAP
001809
002D28
001FE0
000000
000000
007F40
02E7D0
0B82D0
1F02E0
2E03D0
3D07C0
7C0B80
7C1F00
3D7D00
1BE000
ENDCHAR
STARTCHAR Ohungarumlaut
ENCODING 336
SWIDTH 655 0
DWIDTH 13 0
BBX 14 19 1 0
BITMAP
000070E0
0000B1D0
0002D780
00010500
000BF800
007D5E00
01F40B40
07D00B40
0B800B40
1F000F40
3E001F00
7C002E00
78003D00
B8007C00
B400F400
B402E000
B40B8000
3D6E0000
0BE40000
ENDCHAR
STARTCHAR ohungarumlaut
ENCODING 337
SWIDTH 514 0
DWIDTH 10 0
BBX 12 16 0 0
BITMAP
000609
000B1E
001E2C
0038B4
00A190
000000
007F40
02E7D0
0B82D0
1F02E0
2E03D0
3D07C0
7C0B80
7C1F00
3D7D00
1BE000
ENDCHAR
STARTCHAR OE
ENCODING 338
SWIDTH 900 0
DWIDTH 18 0
BBX 19 15 2 0
BITMAP
000BF86FD0
007D5FF574
01F40FC074
07D01F40F4
0F802E07E0
1F003D0780
3E002D0000
7C001EA000
B8000BF400
B4003F4000
B400B80000
B402F40400
B407F01D00
3D6FF5BC00
1BE46F9000
ENDCHAR
STARTCHAR oe
ENCODING 339
SWIDTH 777 0
DWIDTH 16 0
BBX 15 10 1 0
BITMAP
01BE0BE0
07D7BDB4
1F47F078
3D07E0B4
7C07C2F0
B80BDF80
B41FA400
B43F8040
79BFD6D0
2F91FE40
ENDCHAR
STARTCHAR Racute
ENCODING 340
SWIDTH 623 0
DWIDTH 12 0
BBX 14 20 -1 0
BITMAP
00000140
000007C0
00000B40
00002900
00000000
006BF900
02F95780
019502D0
001E02D0
003D03D0
007C07C0
00B81F40
00F5BD00
01FFE000
02DB8000
07C3D000
0B81E000
1F00F400
2D007D40
74002F80
ENDCHAR
STARTCHAR racute
ENCODING 341
SWIDTH 407 0
DWIDTH 8 0
BBX 10 16 0 0
BITMAP
000180
0003D0
0007C0
000F40
002800
000000
0B4780
0B9FC0
0BBA80
0B9000
0F8000
1F0000
2E0000
3C0000
B80000
740000
ENDCHAR
STARTCHAR Rcommaaccent
ENCODING 342
SWIDTH 623 0
DWIDTH 12 0
BBX 14 20 -1 -5
BITMAP
006BF900
02F95780
019502D0
001E02D0
003D03D0
007C07C0
00B81F40
00F5BD00
01FFE000
02DB8000
07C3D000
0B81E000
1F00F400
2D007D40
74002F80
00000000
01E00000
01E00000
01D00000
03400000
ENDCHAR
STARTCHAR rcommaaccent
ENCODING 343
SWIDTH 407 0
DWIDTH 8 0
BBX 10 15 -1 -5
BITMAP
02D1E0
02E7F0
02EDA0
02E400
03E000
07C000
0B8000
1F0000
2E0000
1D0000
000000
780000
7C0000
740000
D00000
ENDCHAR
STARTCHAR Rcaron
ENCODING 344
SWIDTH 623 0
DWIDTH 12 0
BBX 14 19 -1 0
BITMAP
0002D0A0
0001F7D0
0000B900
00001000
006BF900
02F95780
019502D0
001E02D0
003D03D0
007C07C0
00B81F40
00F5BD00
01FFE000
02DB8000
07C3D000
0B81E000
1F00F400
2D007D40
74002F80
ENDCHAR
STARTCHAR rcaron
ENCODING 345
SWIDTH 407 0
DWIDTH 8 0
BBX 11 15 0 0
BITMAP
00A018
0074B4
003B90
002900
000000
0B4780
0B9FC0
0BBA80
0B9000
0F8000
1F0000
2E0000
3C0000
B80000
740000
ENDCHAR
STARTCHAR Sacute
ENCODING 346
SWIDTH 474 0
DWIDTH 9 0
BBX 12 20 0 0
BITMAP
000005
00001F
00002D
0000A4
000000
002FD0
00F474
02D038
07803C
0B80B8
0B81F4
0BC2E0
07D000
03F000
01F800
007C00
342D00
742C00
7D7400
1F9000
ENDCHAR
STARTCHAR sacute
ENCODING 347
SWIDTH 423 0
DWIDTH 8 0
BBX 10 16 0 0
BITMAP
000180
0002D0
0007C0
000F40
002800
000000
01BD00
0B5B40
0F0B40
0F4500
0BC000
03E000
01F400
70F400
B9E000
2F8000
ENDCHAR
STARTCHAR Scircumflex
ENCODING 348
SWIDTH 474 0
DWIDTH 9 0
BBX 12 20 0 0
BITMAP
000014
00007C
0006ED
001E0F
000000
002FD0
00F474
02D038
07803C
0B80B8
0B81F4
0BC2E0
07D000
03F000
01F800
007C00
342D00
742C00
7D7400
1F9000
ENDCHAR
STARTCHAR scircumflex
ENCODING 349
SWIDTH 423 0
DWIDTH 8 0
BBX 10 15 0 0
BITMAP
0003C0
001FC0
00B9D0
0290E0
000000
01BD00
0B5B40
0F0B40
0F4500
0BC000
03E000
01F400
70F400
B9E000
2F8000
ENDCHAR
STARTCHAR Scedilla
ENCODING 350
SWIDTH 474 0
DWIDTH 9 0
BBX 11 19 0 -4
BITMAP
002FD0
00F474
02D03C
07803C
0B80B8
0B82F4
0BC2D0
07D000
02F400
00B800
143C00
742D00
B82C00
7EB400
1B9000
030000
074000
1F4000
2E0000
ENDCHAR
STARTCHAR scedilla
ENCODING 351
SWIDTH 423 0
DWIDTH 8 0
BBX 9 15 0 -5
BITMAP
01BD00
0B5B40
0F0B40
0F4500
0BC000
03E000
01F400
70F400
B5F000
7F8000
1D0000
0E0000
1E0000
7D0000
780000
ENDCHAR
STARTCHAR Scaron
ENCODING 352
SWIDTH 474 0
DWIDTH 9 0
BBX 13 19 0 0
BITMAP
000B4280
0007DF40
0002E400
00000000
002FD000
00F47400
02D03800
07803C00
0B80B800
0B81F400
0BC2E000
07D00000
03F00000
01F80000
007C0000
342D0000
742C0000
7D740000
1F900000
ENDCHAR
STARTCHAR scaron
ENCODING 353
SWIDTH 423 0
DWIDTH 8 0
BBX 11 15 0 0
BITMAP
006408
003878
002ED0
001D00
000000
01BD00
0B5B40
0F0B40
0F4500
0BC000
03E000
01F400
70F400
B9E000
2F8000
ENDCHAR
STARTCHAR Tcommaaccent
ENCODING 354
SWIDTH 471 0
DWIDTH 9 0
BBX 12 20 1 -5
BITMAP
1FE505
7FFFFC
B42E00
603C00
007C00
00B800
00F400
01F000
02E000
03D000
07C000
0B4000
1F0000
2D0000
B40000
000000
3C0000
3C0000
380000
A00000
ENDCHAR
STARTCHAR tcommaaccent
ENCODING 355
SWIDTH 358 0
DWIDTH 7 0
BBX 8 18 0 -5
BITMAP
0050
00F0
02E0
1FFE
0B80
0F40
0F00
1E00
2D00
3C00
3C10
3EE0
1F80
0000
3C00
3C00
3800
A000
ENDCHAR
STARTCHAR Tcaron
ENCODING 356
SWIDTH 471 0
DWIDTH 9 0
BBX 12 19 1 0
BITMAP
001E06
000BAE
0007E4
000100
1FE505
7FFFFC
B42E00
603C00
007C00
00B800
00F400
01F000
02E000
03D000
07C000
0B4000
1F0000
2D0000
B40000
ENDCHAR
STARTCHAR tcaron
ENCODING 357
SWIDTH 497 0
DWIDTH 10 0
BBX 10 17 2 0
BITMAP
000050
0001F0
0000E0
0001D0
014280
07C500
0B4000
BFF400
2D0000
3C0000
780000
B40000
F00000
F00000
E08000
FB8000
7E0000
ENDCHAR
STARTCHAR Tbar
ENCODING 358
SWIDTH 471 0
DWIDTH 9 0
BBX 12 15 1 0
BITMAP
1FE505
7FFFFC
B82E00
603D00
007C00
00B800
00F400
7FFE00
02E000
03D000
07C000
0B4000
0F0000
2D0000
B40000
ENDCHAR
STARTCHAR tbar
ENCODING 359
SWIDTH 358 0
DWIDTH 7 0
BBX 8 13 0 0
BITMAP
0050
00F0
02E0
1FFE
0B80
0F40
7FFD
2E00
2D00
3C00
3C20
2EE0
1F80
ENDCHAR
STARTCHAR Utilde
ENCODING 360
SWIDTH 624 0
DWIDTH 12 0
BBX 14 19 0 0
BITMAP
0002F450
000FFF80
00000000
00000000
00F400E0
00B802E0
00B403D0
00F00B80
02E00F40
03D02F00
07C03E00
0F40BD00
1F01FC00
2E02F800
3D07B400
7C0DB400
B824F000
B990F500
2E407E00
ENDCHAR
STARTCHAR utilde
ENCODING 361
SWIDTH 553 0
DWIDTH 11 0
BBX 12 15 0 0
BITMAP
000B42
003FD6
0061F8
000000
000000
0B8038
07C0B8
07C0F4
0B82E0
1F07D0
2E0BC0
3D2B80
7C6740
798B50
3E07D0
ENDCHAR
STARTCHAR Umacron
ENCODING 362
SWIDTH 624 0
DWIDTH 12 0
BBX 14 18 0 0
BITMAP
000BFF80
00000000
00000000
00F400E0
00B802E0
00B403D0
00F00B80
02E00F40
03D02F00
07C03E00
0F40BD00
1F01FC00
2E02F800
3D07B400
7C0DB400
B824F000
B990F500
2E407E00
ENDCHAR
STARTCHAR umacron
ENCODING 363
SWIDTH 553 0
DWIDTH 11 0
BBX 12 13 0 0
BITMAP
007FFD
000000
000000
0B8038
07C0B8
07C0F4
0B82E0
1F07D0
2E0BC0
3D2B80
7C6740
798B50
3E07D0
ENDCHAR
STARTCHAR Ubreve
ENCODING 364
SWIDTH 624 0
DWIDTH 12 0
BBX 14 20 0 0
BITMAP
00004040
0002C0C0
0002D280
0001FD00
00000000
00F400E0
00B802E0
00B403D0
00F00B80
02E00F40
03D02F00
07C03E00
0F40BD00
1F01FC00
2E02F800
3D07B400
7C0DB400
B824F000
B990F500
2E407E00
ENDCHAR
STARTCHAR ubreve
ENCODING 365
SWIDTH 553 0
DWIDTH 11 0
BBX 12 15 0 0
BITMAP
000D06
001E1D
000BE4
000000
000000
0B8038
07C0B8
07C0F4
0B82E0
1F07D0
2E0BC0
3D2B80
7C6740
798B50
3E07D0
ENDCHAR
STARTCHAR Uring
ENCODING 366
SWIDTH 624 0
DWIDTH 12 0
BBX 14 19 0 0
BITMAP
00006E00
0001E780
0002C380
0002CB40
00F5FDE0
00B802E0
00B403D0
00F00B80
02E00F40
03D02F00
07C03E00
0F40BD00
1F01FC00
2E02F800
3D07B400
7C0DB400
B824F000
B990F500
2E407E00
ENDCHAR
STARTCHAR uring
ENCODING 367
SWIDTH 553 0
DWIDTH 11 0
BBX 11 15 0 0
BITMAP
0006F4
000E6C
001D38
000BE0
000000
0B8038
07C0B8
07C0F4
0B82E0
1F07D0
2E0BC0
3D2B80
7C6740
798B50
3E07D0
ENDCHAR
STARTCHAR Uhungarumlaut
ENCODING 368
SWIDTH 624 0
DWIDTH 12 0
BBX 14 19 0 0
BITMAP
0000B0D0
0000E1D0
0002C780
00010500
00F400E0
00B802E0
00B403D0
00F00B80
02E00F40
03D02F00
07C03E00
0F40BD00
1F01FC00
2E02F800
3D07B400
7C0DB400
B824F000
B990F500
2E407E00
ENDCHAR
STARTCHAR uhungarumlaut
ENCODING 369
SWIDTH 553 0
DWIDTH 11 0
BBX 12 16 0 0
BITMAP
000246
00074B
000F1E
002D38
0064A0
000000
0B8038
07C0B8
07C0F4
0B82E0
1F07D0
2E0BC0
3D2B80
7C6740
798B50
3E07D0
ENDCHAR
STARTCHAR Uogonek
ENCODING 370
SWIDTH 684 0
DWIDTH 14 0
BBX 14 19 1 -4
BITMAP
01F001D0
01F403D0
00F00780
02E00F40
03D01F00
07C03E00
0B807D00
1F00FC00
2E02F800
3D03F400
780AF000
B419F000
F471E000
F581F500
7E00BD00
0000B000
0003C000
00078000
0007E000
ENDCHAR
STARTCHAR uogonek
ENCODING 371
SWIDTH 553 0
DWIDTH 11 0
BBX 11 14 0 -4
BITMAP
0B8038
07C0B8
07C0F4
0B82E0
1F07D0
2E0BC0
3D2B80
7C6740
798B50
3E07E0
000780
001E00
003D00
002F40
ENDCHAR
STARTCHAR Wcircumflex
ENCODING 372
SWIDTH 941 0
DWIDTH 19 0
BBX 19 20 1 0
BITMAP
0000005000
000001F000
00001BB400
0000782C00
0000000000
1BD00000B4
7FF00000F8
14B40000BC
01F00680BC
03E02F4078
07C0BE00B8
0F82FC00B4
1F07F800F0
2E1EB401E0
3C3DF003C0
78B1E00B40
B5D1E01E00
B781E03800
7E00F5E000
2C007E4000
ENDCHAR
STARTCHAR wcircumflex
ENCODING 373
SWIDTH 750 0
DWIDTH 15 0
BBX 15 15 0 0
BITMAP
00001E00
0000BE00
0006DB00
001E0740
00000000
0B8000B4
0BC0F0B8
0782E078
0B43D078
0F0B80B4
1E1F40E0
2D7B41D0
3DDB4740
7F47AE00
3902E400
ENDCHAR
STARTCHAR Ycircumflex
ENCODING 374
SWIDTH 580 0
DWIDTH 12 0
BBX 14 25 0 -5
BITMAP
00000400
00002D00
0001EF00
000B4740
00000000
01F400E0
00B802E0
00B403C0
01F00B80
02E00F40
03D02F00
07C07E00
0F40BC00
1F01F800
2E02F400
3C07B000
780DE000
B826D000
B9938000
2E4B0000
001E0000
00780000
01F00000
07C00000
2E000000
ENDCHAR
STARTCHAR ycircumflex
ENCODING 375
SWIDTH 549 0
DWIDTH 11 0
BBX 11 21 0 -6
BITMAP
0001E0
0007F0
002EB4
00E438
000000
078028
07C078
07C0F4
0B82F0
0F43E0
2F0BD0
3D1FC0
7C7780
79DB40
2E0F00
001E00
003C00
00B400
01E000
1B8000
190000
ENDCHAR
STARTCHAR Ydieresis
ENCODING 376
SWIDTH 580 0
DWIDTH 12 0
BBX 14 25 0 -5
BITMAP
00054140
000FC7D0
000F87C0
00010100
00000000
01F400E0
00B802E0
00B403C0
01F00B80
02E00F40
03D02F00
07C07E00
0F40BC00
1F01F800
2E02F400
3C07B000
780DE000
B826D000
B9938000
2E4B0000
001E0000
00780000
01F00000
07C00000
2E000000
ENDCHAR
STARTCHAR Zacute
ENCODING 377
SWIDTH 501 0
DWIDTH 10 0
BBX 13 20 -1 0
BITMAP
00000500
00000F00
00002E00
00007400
00000000
01906B40
01FFFFC0
00BE5F80
00003E00
0000B800
0002E000
000B8000
002E0000
00B80000
01E00000
07800000
0F000000
2D6BD000
7FFFF000
3E406400
ENDCHAR
STARTCHAR zacute
ENCODING 378
SWIDTH 430 0
DWIDTH 9 0
BBX 10 16 0 0
BITMAP
000090
0001E0
0003D0
000B40
001900
000000
0A9680
07FBC0
001F40
007D00
01F400
0BD000
1F0000
7C1000
BFFC00
B96D00
ENDCHAR
STARTCHAR Zdotaccent
ENCODING 379
SWIDTH 501 0
DWIDTH 10 0
BBX 13 19 -1 0
BITMAP
0001E000
0002F000
0001D000
00000000
01906B40
01FFFFC0
00BE5F80
00003E00
0000B800
0002E000
000B8000
002E0000
00B80000
01E00000
07800000
0F000000
2D6BD000
7FFFF000
3E406400
ENDCHAR
STARTCHAR zdotaccent
ENCODING 380
SWIDTH 430 0
DWIDTH 9 0
BBX 9 15 0 0
BITMAP
002E00
003E00
002900
000000
000000
0A9680
07FBC0
001F40
007D00
01F400
0BD000
1F0000
7C1000
BFFC00
B96D00
ENDCHAR
STARTCHAR Zcaron
ENCODING 381
SWIDTH 501 0
DWIDTH 10 0
BBX 13 19 -1 0
BITMAP
000B8180
0003DB80
0001F800
00004000
01906B40
01FFFFC0
00BE5F80
00003E00
0000B800
0002E000
000B8000
002E0000
00B80000
01E00000
07800000
0F000000
2D6BD000
7FFFF000
3E406400
ENDCHAR
STARTCHAR zcaron
ENCODING 382
SWIDTH 430 0
DWIDTH 9 0
BBX 11 15 0 0
BITMAP
00A028
00B4B4
007B90
003900
000000
0A9680
07FBC0
001F40
007D00
01F400
0BD000
1F0000
7C1000
BFFC00
B96D00
ENDCHAR
STARTCHAR florin
ENCODING 402
SWIDTH 466 0
DWIDTH 9 0
BBX 16 22 -4 -5
BITMAP
000001B8
00000799
00000B0A
00001D1E
00003C3D
0000787C
0000B410
0000F000
0002FF40
001FFF80
001BD000
0003C000
00078000
000B4000
000F4000
000F0000
001E0000
002D0000
007C0000
70B40000
B9E00000
2F800000
ENDCHAR
STARTCHAR AEacute
ENCODING 508
SWIDTH 878 0
DWIDTH 18 0
BBX 21 20 -2 0
BITMAP
000000005000
00000000F000
00000002E000
000000074000
000000000000
000001BAFE40
00000BFF96C0
00002E7E02C0
0000B8B807C0
0001E0F42F40
0003C1F03D00
000B40F00000
001FAFFA8000
00BFFFFF4000
00F402F40000
01E007D00000
03C00B802000
0B800B80B000
1F0007D7D000
780001FE4000
ENDCHAR
STARTCHAR aeacute
ENCODING 509
SWIDTH 770 0
DWIDTH 15 0
BBX 15 16 0 0
BITMAP
00000900
00001F00
00002E00
0000B800
0001D000
00000000
006E7AF4
02E6FD7C
0B81F47C
1F02E0B8
2D03D7E0
3C0BFE40
7C0FC000
7C2BC020
3DA2E5E0
1F80BF80
ENDCHAR
STARTCHAR Scommaaccent
ENCODING 536
SWIDTH 474 0
DWIDTH 9 0
BBX 11 20 0 -5
BITMAP
002FD0
00F474
02D038
07803C
0B80B8
0B81F4
0BC2E0
07D000
03F000
01F800
007C00
342D00
742C00
7D7400
1F9000
000000
0F4000
0B4000
0E0000
280000
ENDCHAR
STARTCHAR scommaaccent
ENCODING 537
SWIDTH 423 0
DWIDTH 8 0
BBX 9 15 0 -5
BITMAP
01BD00
0B5B40
0F0B40
0F4500
0BC000
03E000
01F400
70F400
B9E000
2F8000
000000
2E0000
1E0000
2C0000
600000
ENDCHAR
STARTCHAR dotlessj
ENCODING 567
SWIDTH 277 0
DWIDTH 6 0
BBX 9 15 -4 -5
BITMAP
000B80
000B80
000B80
000B40
000F40
001F00
002E00
003D00
007C00
00B400
01F000
02D000
078000
1E0000
740000
ENDCHAR
STARTCHAR circumflex
ENCODING 710
SWIDTH 354 0
DWIDTH 7 0
BBX 7 4 0 11
BITMAP
00B0
03F4
1E78
B42C
ENDCHAR
STARTCHAR caron
ENCODING 711
SWIDTH 381 0
DWIDTH 8 0
BBX 7 4 1 11
BITMAP
A024
B5B4
7B80
3800
ENDCHAR
STARTCHAR breve
ENCODING 728
SWIDTH 344 0
DWIDTH 7 0
BBX 6 3 1 12
BITMAP
A020
F1A0
BF40
ENDCHAR
STARTCHAR dotaccent
ENCODING 729
SWIDTH 217 0
DWIDTH 4 0
BBX 4 3 1 12
BITMAP
7C
BD
68
ENDCHAR
STARTCHAR ring
ENCODING 730
SWIDTH 402 0
DWIDTH 8 0
BBX 6 5 2 10
BITMAP
0BD0
2DF0
74B0
75E0
2F80
ENDCHAR
STARTCHAR ogonek
ENCODING 731
SWIDTH 311 0
DWIDTH 6 0
BBX 5 6 1 -4
BITMAP
0240
1E00
7800
B000
F000
FD00
ENDCHAR
STARTCHAR tilde
ENCODING 732
SWIDTH 397 0
DWIDTH 8 0
BBX 8 3 1 12
BITMAP
1F42
7FC9
92F4
ENDCHAR
STARTCHAR hungarumlaut
ENCODING 733
SWIDTH 392 0
DWIDTH 8 0
BBX 8 5 0 11
BITMAP
0246
074B
0B1E
2D38
64A0
ENDCHAR
STARTCHAR pi
ENCODING 960
SWIDTH 640 0
DWIDTH 13 0
BBX 13 10 0 0
BITMAP
0BFFFFC0
14B5B900
00E0B400
01D1F000
0381E000
0742D000
0F03C000
2E03C000
FC03E800
F401E000
ENDCHAR
STARTCHAR uni1E02
ENCODING 7682
SWIDTH 551 0
DWIDTH 11 0
BBX 11 19 1 0
BITMAP
000780
000FC0
000740
000000
06BF90
3F91B4
29407C
03D03C
0BC07C
1F40B8
2F02E0
3D1F80
7FFE00
B95F40
F00780
F00B80
E01F40
B5BD00
6F9000
ENDCHAR
STARTCHAR uni1E03
ENCODING 7683
SWIDTH 525 0
DWIDTH 11 0
BBX 10 17 1 0
BITMAP
014000
03C000
03C1E0
0783F0
0B41D0
0F0000
1E0000
1D7E00
2E9B40
3F0B80
7D0B80
B80B80
F00F40
E02F00
E07D00
F6F400
2F8000
ENDCHAR
STARTCHAR uni1E0A
ENCODING 7690
SWIDTH 630 0
DWIDTH 13 0
BBX 12 19 1 0
BITMAP
0007D0
0007D0
000280
000000
1AFF90
3F51B8
14402D
02E01E
07D01F
0B801F
0F401E
2E002E
3D007C
7C00F8
B802F0
B40BC0
F02F00
F5F800
6F9000
ENDCHAR
STARTCHAR uni1E0B
ENCODING 7691
SWIDTH 557 0
DWIDTH 11 0
BBX 12 17 1 0
BITMAP
000005
00001F
02D02D
07E03C
028078
0000B4
0000F0
01BAE0
0797D0
1E03C0
3C07C0
B80B80
F41F40
F02F00
F07E00
F5DE50
7E4B90
ENDCHAR
STARTCHAR uni1E1E
ENCODING 7710
SWIDTH 518 0
DWIDTH 10 0
BBX 13 19 0 0
BITMAP
0000B400
0001F800
0000A000
00000000
0BFEAA40
2FFFFE00
3D0F0000
141E0000
002D0000
007C0000
00B80000
00FFD000
07FFE000
02E00000
03D00000
07C00000
0F400000
2E000000
78000000
ENDCHAR
STARTCHAR uni1E1F
ENCODING 7711
SWIDTH 393 0
DWIDTH 8 0
BBX 12 22 -1 -3
BITMAP
0002D0
0007E0
000290
0001B8
00079E
000F1E
001E3D
002D28
003C00
007800
00BE80
07FFD0
0AE000
02D000
03D000
07C000
0B8000
0F4000
1F0000
2E0000
3D0000
780000
ENDCHAR
STARTCHAR uni1E40
ENCODING 7744
SWIDTH 931 0
DWIDTH 19 0
BBX 21 19 -2 0
BITMAP
00000001E000
00000003F000
00000001D000
000000000000
000007D00B80
00002FD03F80
0000B7C0EB40
0001DB82DF00
00038F476E00
000B1F0A3D00
001D2E1D7C00
003C3D28B800
00743C74F400
00E07CA0F000
02D079C1F000
07807A82E000
0F007F02E000
2D007D01E100
F4003800BD00
ENDCHAR
STARTCHAR uni1E41
ENCODING 7745
SWIDTH 814 0
DWIDTH 16 0
BBX 16 15 0 0
BITMAP
00003D00
00007D00
00002800
00000000
00000000
0B82E078
07CBF2FD
07ACB72D
0BB0EC3C
0FC1F4B8
1F43E0F0
3D07C1E0
7C0B42D0
B41F02FC
B01D01F4
ENDCHAR
STARTCHAR uni1E56
ENCODING 7766
SWIDTH 553 0
DWIDTH 11 0
BBX 14 19 -1 0
BITMAP
00001E00
00003F00
00001D00
00000000
006FF900
02F95B80
015D02D0
002D02D0
007C03D0
00B80B80
00F46F00
01F6F800
02FE9000
03D00000
07C00000
0F400000
1E000000
3C000000
B4000000
ENDCHAR
STARTCHAR uni1E57
ENCODING 7767
SWIDTH 550 0
DWIDTH 11 0
BBX 13 20 -2 -5
BITMAP
0000B400
0001F800
0000A000
00000000
00000000
00F4BD00
00BB9F00
00BD0F40
00F80F40
01F01F00
02E02E00
02D03D00
03D0B800
07E6E000
0B6E4000
0F000000
1E000000
2D000000
3C000000
74000000
ENDCHAR
STARTCHAR uni1E60
ENCODING 7776
SWIDTH 474 0
DWIDTH 9 0
BBX 11 19 0 0
BITMAP
0002E0
0003E0
000290
000000
002FD0
00F474
02D038
07803C
0B80B8
0B81F4
0BC2E0
07D000
03F000
01F800
007C00
342D00
742C00
7D7400
1F9000
ENDCHAR
STARTCHAR uni1E61
ENCODING 7777
SWIDTH 423 0
DWIDTH 8 0
BBX 9 15 0 0
BITMAP
001F40
002F40
000A00
000000
000000
01BD00
0B5B40
0F0B40
0F4500
0BC000
03E000
01F400
70F400
B9E000
2F8000
ENDCHAR
STARTCHAR uni1E6A
ENCODING 7786
SWIDTH 430 0
DWIDTH 9 0
BBX 11 19 1 0
BITMAP
000B80
000FC0
000740
000000
2FA508
FFFFF8
F03C00
907800
00F400
01F000
01E000
02D000
03C000
078000
0B4000
0F0000
2D0000
780000
E00000
ENDCHAR
STARTCHAR uni1E6B
ENCODING 7787
SWIDTH 358 0
DWIDTH 7 0
BBX 8 15 1 0
BITMAP
0078
00BC
00B4
01E0
03D0
2FFD
0F40
1E00
2D00
3C00
7800
7800
7810
7ED0
2E40
ENDCHAR
STARTCHAR Wgrave
ENCODING 7808
SWIDTH 941 0
DWIDTH 19 0
BBX 19 20 1 0
BITMAP
0000050000
00001E0000
00000F4000
000006C000
0000000000
1BD00000B4
7FF00000F8
14B40000BC
01F00780BC
03D02F4078
07C0BE00B8
0F42FC00B4
1F0BF800F0
2D1EF402E0
3C39F003C0
78B1E00B40
B5D1E01E00
B781E07800
7E00F6E000
2C007E4000
ENDCHAR
STARTCHAR wgrave
ENCODING 7809
SWIDTH 750 0
DWIDTH 15 0
BBX 15 15 0 0
BITMAP
0001E000
0001E000
0001E000
00007000
00000000
0B8000B4
0BC0F0B8
0782E078
0B43D078
0F0B80B4
1E1F40E0
2D7B41D0
3DDB4740
7F47AE00
3902E400
ENDCHAR
STARTCHAR Wacute
ENCODING 7810
SWIDTH 941 0
DWIDTH 19 0
BBX 19 20 1 0
BITMAP
0000001400
0000007C00
000000B400
0000029000
0000000000
1BD00000B4
7FF00000F8
14B40000BC
01F00680BC
03E02F4078
07C0BE00B8
0F82FC00B4
1F07F800F0
2E1EB401E0
3C3DF003C0
78B1E00B40
B5D1E01E00
B781E03800
7E00F5E000
2C007E4000
ENDCHAR
STARTCHAR wacute
ENCODING 7811
SWIDTH 750 0
DWIDTH 15 0
BBX 15 16 0 0
BITMAP
00000800
00002E00
00003D00
0000B400
00029000
00000000
0B8000B4
0BC0F0B8
0782E078
0B43D078
0F0B80B4
1E1F40E0
2D7B41D0
3DDB4740
7F47AE00
3902E400
ENDCHAR
STARTCHAR Wdieresis
ENCODING 7812
SWIDTH 941 0
DWIDTH 19 0
BBX 19 19 1 0
BITMAP
00007D2E00
0000BD3E00
0000282900
0000000000
1BD00000B4
7FF00000F8
14B40000BC
01F00780BC
03D02F4078
07C0BE00B8
0F42FC00B4
1F0BF800F0
2D1EF402E0
3C39F003C0
78B1E00B40
B5D1E01E00
B781E07800
7E00F6E000
2C007E4000
ENDCHAR
STARTCHAR wdieresis
ENCODING 7813
SWIDTH 750 0
DWIDTH 15 0
BBX 15 15 0 0
BITMAP
000B47C0
000F8BD0
000A4780
00000000
00000000
0B8000B4
0BC0F0B8
0782E078
0B43D078
0F0B80B4
1E1F40E0
2D7B41D0
3DDB4740
7F47AE00
3902E400
ENDCHAR
STARTCHAR Ygrave
ENCODING 7922
SWIDTH 580 0
DWIDTH 12 0
BBX 14 25 0 -5
BITMAP
00004000
0002D000
0002E000
00007800
00000000
01F400E0
00B802E0
00B403C0
01F00B80
02E00F40
03D02F00
07C07E00
0F40BC00
1F01F800
2E02F400
3C07B000
780DE000
B826D000
B9938000
2E4B0000
001E0000
00780000
01F00000
07C00000
2E000000
ENDCHAR
STARTCHAR ygrave
ENCODING 7923
SWIDTH 549 0
DWIDTH 11 0
BBX 11 21 0 -6
BITMAP
000B00
001F00
000F00
000740
000000
078028
07C078
07C0F4
0B82F0
0F43E0
2F0BD0
3D1FC0
7C7780
79DB40
2E0F00
001E00
003C00
00B400
01E000
1B8000
190000
ENDCHAR
STARTCHAR endash
ENCODING 8211
SWIDTH 751 0
DWIDTH 15 0
BBX 12 1 2 6
BITMAP
FFFFFD
ENDCHAR
STARTCHAR emdash
ENCODING 8212
SWIDTH 1066 0
DWIDTH 21 0
BBX 18 1 2 6
BITMAP
BFFFFFFFE0
ENDCHAR
STARTCHAR quoteleft
ENCODING 8216
SWIDTH 268 0
DWIDTH 5 0
BBX 4 5 2 11
BITMAP
07
2D
3C
7C
2C
ENDCHAR
STARTCHAR quoteright
ENCODING 8217
SWIDTH 268 0
DWIDTH 5 0
BBX 4 5 3 11
BITMAP
2C
3D
2C
38
A0
ENDCHAR
STARTCHAR quotesinglbase
ENCODING 8218
SWIDTH 268 0
DWIDTH 5 0
BBX 4 5 0 -2
BITMAP
2D
2D
2D
38
A0
ENDCHAR
STARTCHAR quotedblleft
ENCODING 8220
SWIDTH 485 0
DWIDTH 10 0
BBX 8 5 3 11
BITMAP
191D
7474
F0F0
F5F0
F0E0
ENDCHAR
STARTCHAR quotedblright
ENCODING 8221
SWIDTH 480 0
DWIDTH 10 0
BBX 8 5 3 12
BITMAP
2D2D
2E2E
1D2D
3838
A0A0
ENDCHAR
STARTCHAR quotedblbase
ENCODING 8222
SWIDTH 463 0
DWIDTH 9 0
BBX 8 5 0 -2
BITMAP
2D2C
2D3D
2D2D
3838
A0A0
ENDCHAR
STARTCHAR dagger
ENCODING 8224
SWIDTH 488 0
DWIDTH 10 0
BBX 8 15 2 0
BITMAP
00E0
01F0
02F0
57FA
BFFD
07C0
0B80
0F40
1F00
1E00
2C00
3800
7400
E000
8000
ENDCHAR
STARTCHAR daggerdbl
ENCODING 8225
SWIDTH 488 0
DWIDTH 10 0
BBX 9 15 1 0
BITMAP
003800
007C00
00BC00
15FE80
1FFF80
01F000
02E000
03D000
57E900
6FF800
0B0000
0E0000
1D0000
380000
600000
ENDCHAR
STARTCHAR bullet
ENCODING 8226
SWIDTH 437 0
DWIDTH 9 0
BBX 5 5 2 4
BITMAP
2F40
BFC0
BFC0
7F80
1900
ENDCHAR
STARTCHAR ellipsis
ENCODING 8230
SWIDTH 810 0
DWIDTH 16 0
BBX 15 3 0 0
BITMAP
7D0B81F4
7E0FC2F4
3C0B41E0
ENDCHAR
STARTCHAR perthousand
ENCODING 8240
SWIDTH 1184 0
DWIDTH 24 0
BBX 22 15 1 0
BITMAP
06E002800000
1E780B400000
3C3C1D000000
787838000000
74B8B0000000
79F1D0000000
2F8380000000
000B00000000
001D1B802F40
003879E0F6C0
00B0F0F2D2D0
01D1E1E3C3C0
0381D2D38780
0B01E783DF40
1D007E01F900
ENDCHAR
STARTCHAR guilsinglleft
ENCODING 8249
SWIDTH 413 0
DWIDTH 8 0
BBX 7 8 1 2
BITMAP
0024
01E0
1F40
7D00
7800
2E00
0B80
02C0
ENDCHAR
STARTCHAR guilsinglright
ENCODING 8250
SWIDTH 416 0
DWIDTH 8 0
BBX 6 8 1 2
BITMAP
2D00
1F00
07C0
01F0
02E0
0B80
7900
9000
ENDCHAR
STARTCHAR fraction
ENCODING 8260
SWIDTH 580 0
DWIDTH 12 0
BBX 11 16 0 0
BITMAP
00001C
000078
0000B0
0001E0
0003C0
000B40
001E00
002C00
007800
00F000
02D000
038000
0B0000
1E0000
3C0000
740000
ENDCHAR
STARTCHAR Euro
ENCODING 8364
SWIDTH 622 0
DWIDTH 12 0
BBX 13 15 1 0
BITMAP
0001B900
000B9B00
002E0740
00B80F40
01F02F00
03E03D00
07C01400
2FFE0000
0F400000
BFFD0000
1F000000
1F000000
0F405000
0B96D000
01FE4000
ENDCHAR
STARTCHAR trademark
ENCODING 8482
SWIDTH 1084 0
DWIDTH 22 0
BBX 17 8 3 7
BITMAP
7FFF2E0B40
57957E2F40
0740AD7B40
0B01DDAB00
0E039DCF00
1D071F4E00
1D0E1F0F00
0A28090700
ENDCHAR
STARTCHAR Omega
ENCODING 8486
SWIDTH 839 0
DWIDTH 17 0
BBX 15 15 1 0
BITMAP
00BFF400
07D02F00
0F4007C0
2E0002E0
3D0001F0
7C0000F4
BC0000F4
7C0000F4
7C0001F4
3D0002E0
1E0003D0
0B400780
42C01E04
F9E03DBC
BFF47FF8
ENDCHAR
STARTCHAR partialdiff
ENCODING 8706
SWIDTH 580 0
DWIDTH 12 0
BBX 12 16 0 0
BITMAP
000BE4
003D2C
00781D
00241D
00041D
00BFAD
03E0BD
0F807C
1F00B8
3E00F4
7D01F0
7C03E0
780BC0
781F40
3D7D00
1FE000
ENDCHAR
STARTCHAR Delta
ENCODING 8710
SWIDTH 663 0
DWIDTH 13 0
BBX 13 12 0 0
BITMAP
000B0000
001F4000
003B8000
00B2D000
00D1E000
0280F400
07407800
0A003C00
1D001E00
28000F00
74000B80
BFFFFF40
ENDCHAR
STARTCHAR product
ENCODING 8719
SWIDTH 667 0
DWIDTH 13 0
BBX 11 18 1 -2
BITMAP
015550
2FFFFC
78007C
78007C
78007C
78007C
78007C
78007C
78007C
78007C
78007C
78007C
78007C
78007C
78007C
78007C
78007C
600024
ENDCHAR
STARTCHAR summation
ENCODING 8721
SWIDTH 677 0
DWIDTH 14 0
BBX 13 18 0 -2
BITMAP
01555500
0BFFFF40
0F800000
0BD00000
03F00000
01F80000
00BD0000
003F0000
001F8000
000B4000
001E0000
00780000
01F00000
03D00000
0B400000
2E000000
7FFFFE00
2FFFF900
ENDCHAR
STARTCHAR minus
ENCODING 8722
SWIDTH 617 0
DWIDTH 12 0
BBX 10 2 1 6
BITMAP
BFFFF0
555550
ENDCHAR
STARTCHAR radical
ENCODING 8730
SWIDTH 709 0
DWIDTH 14 0
BBX 16 19 0 0
BITMAP
0000000A
0000000E
0000002E
0000003D
000000B8
000000F0
000002D0
000003C0
00000B40
06800E00
1FC02D00
7BD07800
02D0B000
01E1D000
00F2C000
00F74000
00BE0000
007D0000
00780000
ENDCHAR
STARTCHAR infinity
ENCODING 8734
SWIDTH 681 0
DWIDTH 14 0
BBX 12 7 1 4
BITMAP
050050
2FD7FD
B9BF9A
E07E0B
A1FD1E
7FE7FD
1A41A4
ENDCHAR
STARTCHAR integral
ENCODING 8747
SWIDTH 583 0
DWIDTH 12 0
BBX 16 23 -2 -4
BITMAP
000000A8
000002EA
00000B87
00000F0F
00002E2E
00003C18
00007800
0000B400
0000F000
0001E000
0002E000
0003D000
0007C000
000B8000
000F4000
000F0000
001E0000
142D0000
7D7C0000
B8B40000
A1F00000
7BD00000
1E400000
ENDCHAR
STARTCHAR approxequal
ENCODING 8776
SWIDTH 671 0
DWIDTH 13 0
BBX 12 10 1 2
BITMAP
004000
0BF40A
2EBE1D
342FF4
100B90
068004
2FF41C
75FD74
903FE0
400540
ENDCHAR
STARTCHAR notequal
ENCODING 8800
SWIDTH 617 0
DWIDTH 12 0
BBX 11 13 1 1
BITMAP
000060
0001D0
000380
000B40
7FFFF4
157950
00B400
05E540
7FFFF4
1B5550
0E0000
2C0000
740000
ENDCHAR
STARTCHAR lessequal
ENCODING 8804
SWIDTH 704 0
DWIDTH 14 0
BBX 10 14 1 0
BITMAP
000010
0001B0
000B90
00BD00
07E000
7E0000
BD0000
1BD000
01B800
001F80
0001F0
000010
155550
BFFFF0
ENDCHAR
STARTCHAR greaterequal
ENCODING 8805
SWIDTH 617 0
DWIDTH 12 0
BBX 10 14 1 0
BITMAP
100000
B90000
1F8000
01F800
002F40
0006F0
000BE0
007E00
06E400
2E4000
B40000
000000
155550
BFFFE0
ENDCHAR
STARTCHAR lozenge
ENCODING 9674
SWIDTH 580 0
DWIDTH 12 0
BBX 10 15 1 0
BITMAP
00E000
02F400
077800
0E2D00
2C0F00
380780
B002D0
E001E0
B401C0
380380
1D0B00
0F1D00
07B800
02F000
00E000
ENDCHAR
STARTCHAR commaaccent
ENCODING 63171
SWIDTH 250 0
DWIDTH 5 0
BBX 3 4 1 -5
BITMAP
78
7C
74
E0
ENDCHAR
STARTCHAR ff
ENCODING 64256
SWIDTH 773 0
DWIDTH 15 0
BBX 20 19 -1 -3
BITMAP
0001F802F4
00079E0B6D
000F1E1E2D
001E3D2D7C
002D283C24
003C007800
007800B400
00BAAAFE40
06FFFFFFC0
0AE402D000
02E003C000
03D0078000
07C00B8000
0B800F4000
0F401F0000
1F002E0000
2E003D0000
3D00780000
7800B40000
ENDCHAR
STARTCHAR fi
ENCODING 64257
SWIDTH 623 0
DWIDTH 12 0
BBX 14 19 -1 -3
BITMAP
00006F80
0002E5E0
000B80F0
001F01F0
002D03D0
003C0040
00BEFF80
07F94B80
0AF00B80
02E00F40
02D01E00
03C02D00
07803C00
0B407800
0F007800
1E002E00
2D000000
78000000
10000000
ENDCHAR
STARTCHAR fl
ENCODING 64258
SWIDTH 637 0
DWIDTH 13 0
BBX 15 19 -1 -3
BITMAP
00006F90
0002E5F0
000B80B4
001F00F0
002D00F0
003C01E0
007802D0
00BF83C0
0BFFDB80
06E00F40
02D01F00
03C02E00
07803D00
0B403C00
0F003D40
1E002E40
3D000000
78000000
10000000
ENDCHAR
STARTCHAR .notdef
ENCODING -1
SWIDTH 896 0
DWIDTH 18 0
BBX 19 19 1 -1
BITMAP
001AAAAAA4
007FFFFFF8
00BFFFFFF4
00FFFFFFF0
01FEBF9BE0
02FC3D1BE0
03F8347FD0
07F821FFC0
0BFC07FF80
0BFD1FFF40
0FFD1FFF00
1FF40FFE00
2FD246BD00
3F4BC07D00
7FAFF6FC00
BFFFFFF800
BFFFFFF400
BFFFFFE000
0555550000
ENDCHAR
ENDFONT
